<svg width="16" height="16" viewBox="0 0 16 16" fill="none" xmlns="http://www.w3.org/2000/svg">
<path d="M8 10.8125C8.46484 10.8125 8.875 11.0859 9.12109 11.4688C9.36719 11.8789 9.36719 12.3984 9.12109 12.7812C8.875 13.1914 8.46484 13.4375 8 13.4375C7.50781 13.4375 7.09766 13.1914 6.85156 12.7812C6.60547 12.3984 6.60547 11.8789 6.85156 11.4688C7.09766 11.0859 7.50781 10.8125 8 10.8125ZM8 6.4375C8.46484 6.4375 8.875 6.71094 9.12109 7.09375C9.36719 7.50391 9.36719 8.02344 9.12109 8.40625C8.875 8.81641 8.46484 9.0625 8 9.0625C7.50781 9.0625 7.09766 8.81641 6.85156 8.40625C6.60547 8.02344 6.60547 7.50391 6.85156 7.09375C7.09766 6.71094 7.50781 6.4375 8 6.4375ZM9.3125 3.375C9.3125 3.86719 9.03906 4.27734 8.65625 4.52344C8.24609 4.76953 7.72656 4.76953 7.34375 4.52344C6.93359 4.27734 6.6875 3.86719 6.6875 3.375C6.6875 2.91016 6.93359 2.5 7.34375 2.25391C7.72656 2.00781 8.24609 2.00781 8.65625 2.25391C9.03906 2.5 9.3125 2.91016 9.3125 3.375Z" fill="#092F42"/>
</svg>
