<svg width="16" height="16" viewBox="0 0 16 16" fill="none" xmlns="http://www.w3.org/2000/svg">
<path d="M8.15625 2.71875V7.09375H12.5312C12.8867 7.09375 13.1875 7.39453 13.1875 7.75C13.1875 8.13281 12.8867 8.40625 12.5312 8.40625H8.15625V12.7812C8.15625 13.1641 7.85547 13.4375 7.5 13.4375C7.11719 13.4375 6.84375 13.1641 6.84375 12.7812V8.40625H2.46875C2.08594 8.40625 1.8125 8.13281 1.8125 7.75C1.8125 7.39453 2.08594 7.09375 2.46875 7.09375H6.84375V2.71875C6.84375 2.36328 7.11719 2.0625 7.5 2.0625C7.85547 2.0625 8.15625 2.36328 8.15625 2.71875Z" fill="#092F42"/>
</svg>
