<svg width="16" height="16" viewBox="0 0 16 16" fill="none" xmlns="http://www.w3.org/2000/svg">
<path d="M9.84375 3.91667L10.0977 4.9375C10.1367 5.02083 10.2148 5.08333 10.3125 5.08333C10.3906 5.08333 10.4688 5.02083 10.5078 4.9375L10.7812 3.91667L11.7188 3.64583C11.7969 3.60417 11.875 3.52083 11.875 3.41667C11.875 3.33333 11.7969 3.25 11.7188 3.20833L10.7812 2.91667L10.5078 1.91667C10.4688 1.83333 10.3906 1.75 10.3125 1.75C10.2148 1.75 10.1367 1.83333 10.0977 1.91667L9.84375 2.91667L8.88672 3.20833C8.80859 3.25 8.75 3.33333 8.75 3.41667C8.75 3.52083 8.80859 3.60417 8.88672 3.64583L9.84375 3.91667Z" fill="#092F42"/>
<path d="M11.3672 6.60417L12.1094 6.83333L12.3242 7.625C12.3438 7.70833 12.4219 7.75 12.5 7.75C12.5586 7.75 12.6367 7.70833 12.6562 7.625L12.8711 6.83333L13.6133 6.60417C13.6914 6.58333 13.75 6.5 13.75 6.41667C13.75 6.35417 13.6914 6.27083 13.6133 6.25L12.8711 6.02083L12.6562 5.22917C12.6367 5.14583 12.5586 5.08333 12.5 5.08333C12.4219 5.08333 12.3438 5.14583 12.3242 5.22917L12.1094 6.02083L11.3672 6.25C11.2891 6.27083 11.25 6.35417 11.25 6.41667C11.25 6.5 11.2891 6.58333 11.3672 6.60417Z" fill="#092F42"/>
<path d="M5.05 10.5L5.7 13.0521C5.8 13.2604 6 14.25 6.25 14.25C6.45 14.25 6.65 13.2604 6.75 13.0521L7.45 10.5C7.45 10.5 10.25 9.51042 10.25 9.25C10.25 9.04167 7.45 8 7.45 8L6.75 5.5C6.65 5.29167 6.475 4.25 6.25 4.25C6.025 4.25 5.8 5.29167 5.7 5.5L5.05 8C5.05 8 2.25 9.04167 2.25 9.25C2.25 9.51042 5.05 10.5 5.05 10.5Z" fill="#092F42"/>
<path d="M9.84375 3.91667L10.0977 4.9375C10.1367 5.02083 10.2148 5.08333 10.3125 5.08333C10.3906 5.08333 10.4688 5.02083 10.5078 4.9375L10.7812 3.91667L11.7188 3.64583C11.7969 3.60417 11.875 3.52083 11.875 3.41667C11.875 3.33333 11.7969 3.25 11.7188 3.20833L10.7812 2.91667L10.5078 1.91667C10.4688 1.83333 10.3906 1.75 10.3125 1.75C10.2148 1.75 10.1367 1.83333 10.0977 1.91667L9.84375 2.91667L8.88672 3.20833C8.80859 3.25 8.75 3.33333 8.75 3.41667C8.75 3.52083 8.80859 3.60417 8.88672 3.64583L9.84375 3.91667Z" stroke="#092F42" stroke-width="0.5" stroke-linejoin="round"/>
<path d="M11.3672 6.60417L12.1094 6.83333L12.3242 7.625C12.3438 7.70833 12.4219 7.75 12.5 7.75C12.5586 7.75 12.6367 7.70833 12.6562 7.625L12.8711 6.83333L13.6133 6.60417C13.6914 6.58333 13.75 6.5 13.75 6.41667C13.75 6.35417 13.6914 6.27083 13.6133 6.25L12.8711 6.02083L12.6562 5.22917C12.6367 5.14583 12.5586 5.08333 12.5 5.08333C12.4219 5.08333 12.3438 5.14583 12.3242 5.22917L12.1094 6.02083L11.3672 6.25C11.2891 6.27083 11.25 6.35417 11.25 6.41667C11.25 6.5 11.2891 6.58333 11.3672 6.60417Z" stroke="#092F42" stroke-width="0.5" stroke-linejoin="round"/>
<path d="M5.05 10.5L5.7 13.0521C5.8 13.2604 6 14.25 6.25 14.25C6.45 14.25 6.65 13.2604 6.75 13.0521L7.45 10.5C7.45 10.5 10.25 9.51042 10.25 9.25C10.25 9.04167 7.45 8 7.45 8L6.75 5.5C6.65 5.29167 6.475 4.25 6.25 4.25C6.025 4.25 5.8 5.29167 5.7 5.5L5.05 8C5.05 8 2.25 9.04167 2.25 9.25C2.25 9.51042 5.05 10.5 5.05 10.5Z" stroke="#092F42" stroke-width="0.5" stroke-linejoin="round"/>
</svg>
