<svg width="16" height="16" viewBox="0 0 16 16" fill="none" xmlns="http://www.w3.org/2000/svg">
<path d="M1.5 10.5V13C1.5 13.2812 1.71875 13.5 2 13.5H14C14.25 13.5 14.5 13.2812 14.5 13V10.5H11.9375L11.2812 11.8125C11.0938 12.25 10.6562 12.5 10.1875 12.5H5.78125C5.3125 12.5 4.875 12.25 4.6875 11.8125L4.03125 10.5H1.5ZM14.1875 9L12.6562 2.90625C12.5938 2.65625 12.4062 2.5 12.1875 2.5H3.8125C3.5625 2.5 3.375 2.65625 3.3125 2.90625L1.78125 9H4.1875C4.65625 9 5.09375 9.28125 5.28125 9.71875L5.9375 11H10.0312L10.6875 9.71875C10.875 9.28125 11.3125 9 11.7812 9H14.1875ZM0 10.25C0 10.0938 0 9.9375 0.03125 9.78125L1.84375 2.53125C2.09375 1.625 2.875 1 3.8125 1H12.1875C13.0938 1 13.9062 1.625 14.125 2.53125L15.9375 9.78125C15.9688 9.9375 16 10.0938 16 10.25V13C16 14.125 15.0938 15 14 15H2C0.875 15 0 14.125 0 13V10.25Z" fill="#092F42"/>
</svg>
