<svg width="16" height="16" viewBox="0 0 16 16" fill="none" xmlns="http://www.w3.org/2000/svg">
<path d="M12.8877 3.41626C12.8877 3.03345 13.1885 2.76001 13.5439 2.76001C13.9268 2.76001 14.2002 3.03345 14.2002 3.41626L14.2002 12.6038C14.2002 12.9592 13.9268 13.26 13.5439 13.26C13.1885 13.26 12.8877 12.9592 12.8877 12.6038L12.8877 3.41626ZM6.7627 4.97485C6.48926 4.72876 6.48926 4.3186 6.73535 4.01782C6.98145 3.77173 7.3916 3.74438 7.66504 3.99048L11.3838 7.49048C11.6572 7.73657 11.6572 8.20142 11.3838 8.44751L7.66504 11.9475C7.3916 12.1936 6.98145 12.1936 6.73535 11.9202C6.62598 11.7834 6.57129 11.6467 6.57129 11.4827C6.57129 11.2913 6.62598 11.1272 6.7627 10.9905L9.27832 8.63892L2.63379 8.63892C2.25098 8.63891 1.9502 8.36548 1.9502 8.01001C1.9502 7.6272 2.25098 7.35376 2.63379 7.35376L9.27832 7.35376L6.7627 4.97485Z" fill="#092F42"/>
</svg>
