<svg width="16" height="16" viewBox="0 0 16 16" fill="none" xmlns="http://www.w3.org/2000/svg">
<path d="M3.2627 12.6038C3.2627 12.9866 2.96191 13.26 2.60645 13.26C2.22363 13.26 1.9502 12.9866 1.9502 12.6038V3.41626C1.9502 3.06079 2.22363 2.76001 2.60645 2.76001C2.96191 2.76001 3.2627 3.06079 3.2627 3.41626V12.6038ZM9.3877 11.0452C9.66113 11.2913 9.66113 11.7014 9.41504 12.0022C9.16895 12.2483 8.75879 12.2756 8.48535 12.0295L4.7666 8.52954C4.49316 8.28345 4.49316 7.8186 4.7666 7.57251L8.48535 4.07251C8.75879 3.82642 9.16895 3.82642 9.41504 4.09985C9.52441 4.23657 9.5791 4.37329 9.5791 4.53735C9.5791 4.72876 9.52441 4.89282 9.3877 5.02954L6.87207 7.3811H13.5166C13.8994 7.3811 14.2002 7.65454 14.2002 8.01001C14.2002 8.39282 13.8994 8.66626 13.5166 8.66626H6.87207L9.3877 11.0452Z" fill="#092F42"/>
</svg>
