<svg width="16" height="16" viewBox="0 0 16 16" fill="none" xmlns="http://www.w3.org/2000/svg">
<path d="M1.4248 11.3036C1.15137 11.0575 1.15137 10.6473 1.4248 10.3739C1.6709 10.1278 2.08105 10.1278 2.35449 10.3739L3.8584 11.9052V2.52625C3.8584 2.17078 4.13184 1.87 4.51465 1.87C4.87012 1.87 5.1709 2.17078 5.1709 2.52625V11.9052L6.6748 10.4012C6.9209 10.1278 7.33105 10.1278 7.57715 10.4012C7.85059 10.6473 7.85059 11.0575 7.57715 11.3036L4.95215 13.9286C4.70605 14.202 4.2959 14.202 4.0498 13.9286L1.4248 11.3036ZM11.0498 2.0614C11.2959 1.81531 11.7061 1.81531 11.9795 2.0614L14.5771 4.6864C14.8506 4.95984 14.8506 5.37 14.5771 5.61609C14.3311 5.88953 13.9209 5.88953 13.6475 5.61609L12.1436 4.11218V13.4637C12.1436 13.8466 11.8701 14.12 11.4873 14.12C11.1318 14.12 10.8311 13.8466 10.8311 13.4637V4.11218L9.32715 5.61609C9.08105 5.88953 8.6709 5.88953 8.4248 5.61609C8.15137 5.37 8.15137 4.95984 8.4248 4.6864L11.0498 2.0614Z" fill="#092F42"/>
</svg>
