<svg width="16" height="16" viewBox="0 0 16 16" fill="none" xmlns="http://www.w3.org/2000/svg">
<path d="M8.96449 1.84375L13.5582 6.65625C13.8043 6.92969 13.8043 7.33984 13.5309 7.58594C13.2575 7.83203 12.8473 7.83203 12.6012 7.55859L9.1559 3.92188V13.2188C9.1559 13.6016 8.85512 13.875 8.49965 13.875C8.11683 13.875 7.8434 13.6016 7.8434 13.2188V3.92188L4.37074 7.55859C4.12465 7.83203 3.71449 7.83203 3.44105 7.58594C3.16762 7.33984 3.16762 6.90234 3.41371 6.65625L8.00746 1.84375C8.14418 1.70703 8.30824 1.625 8.49965 1.625C8.66371 1.625 8.82777 1.70703 8.96449 1.84375Z" fill="#092F42"/>
</svg>
