<svg width="16" height="16" viewBox="0 0 16 16" fill="none" xmlns="http://www.w3.org/2000/svg">
<path d="M9.60699 11.3992C9.60699 11.0738 9.85731 10.7985 10.2078 10.7985H13.1615L8.78093 6.4429L6.00238 9.22145C5.77709 9.47177 5.40161 9.47177 5.17632 9.22145L0.970943 5.01607C0.720623 4.79078 0.720623 4.4153 0.970943 4.16498C1.19623 3.9397 1.57171 3.9397 1.82203 4.16498L5.60187 7.94482L8.38042 5.16626C8.60571 4.94098 8.98119 4.94098 9.23151 5.16626L14.0126 9.97241V6.9936C14.0126 6.66818 14.2629 6.39283 14.6134 6.39283C14.9388 6.39283 15.2142 6.66818 15.2142 6.9936V11.3992C15.2142 11.7497 14.9388 12 14.6134 12H10.2078C9.85731 12 9.60699 11.7497 9.60699 11.3992Z" fill="#092F42"/>
</svg>
