<svg width="16" height="16" viewBox="0 0 16 16" fill="none" xmlns="http://www.w3.org/2000/svg">
<path d="M8.00746 13.6836L3.41371 8.87109C3.16762 8.59766 3.16762 8.1875 3.44105 7.94141C3.71449 7.69531 4.12465 7.69531 4.37074 7.96875L7.8434 11.6055V2.28125C7.8434 1.92578 8.11683 1.625 8.49965 1.625C8.85512 1.625 9.1559 1.92578 9.1559 2.28125V11.6055L12.6012 7.96875C12.8473 7.69531 13.2848 7.69531 13.5309 7.94141C13.8043 8.1875 13.8043 8.59766 13.5582 8.87109L8.96449 13.6836C8.82777 13.8203 8.66371 13.875 8.49965 13.875C8.30824 13.875 8.14418 13.8203 8.00746 13.6836Z" fill="#092F42"/>
</svg>
