<svg width="16" height="16" viewBox="0 0 16 16" fill="none" xmlns="http://www.w3.org/2000/svg">
<path d="M2.56641 8.24219C2.42969 8.10547 2.375 7.9414 2.375 7.75C2.375 7.58594 2.42969 7.42187 2.56641 7.28515L7.37891 2.6914C7.65234 2.44531 8.0625 2.44531 8.30859 2.71875C8.55469 2.96484 8.55469 3.40234 8.28125 3.64844L4.64453 7.09375H13.9688C14.3242 7.09375 14.625 7.39453 14.625 7.75C14.625 8.13281 14.3242 8.40625 13.9688 8.40625H4.64453L8.28125 11.8789C8.55469 12.125 8.55469 12.5352 8.30859 12.8086C8.0625 13.082 7.65234 13.082 7.37891 12.8359L2.56641 8.24219Z" fill="#092F42"/>
</svg>
