<svg width="16" height="16" viewBox="0 0 16 16" fill="none" xmlns="http://www.w3.org/2000/svg">
<path d="M9.60601 4.59678C9.60601 4.9222 9.85633 5.19755 10.2068 5.19755H13.1606L8.77995 9.55312L6.0014 6.77457C5.77611 6.52425 5.40063 6.52425 5.17534 6.77457L0.969967 10.9799C0.719647 11.2052 0.719647 11.5807 0.969967 11.831C1.19525 12.0563 1.57073 12.0563 1.82106 11.831L5.60089 8.0512L8.37944 10.8298C8.60473 11.055 8.98021 11.055 9.23053 10.8298L14.0116 6.02361V9.00242C14.0116 9.32783 14.262 9.60318 14.6124 9.60318C14.9378 9.60318 15.2132 9.32783 15.2132 9.00242V4.59678C15.2132 4.24633 14.9378 3.99601 14.6124 3.99601H10.2068C9.85633 3.99601 9.60601 4.24633 9.60601 4.59678Z" fill="#092F42"/>
</svg>
