<svg width="16" height="16" viewBox="0 0 16 16" fill="none" xmlns="http://www.w3.org/2000/svg">
<path d="M13.6875 7.75C13.6875 5.72656 12.5938 3.86719 10.8438 2.82812C9.06641 1.81641 6.90625 1.81641 5.15625 2.82812C3.37891 3.86719 2.3125 5.72656 2.3125 7.75C2.3125 9.80078 3.37891 11.6602 5.15625 12.6992C6.90625 13.7109 9.06641 13.7109 10.8438 12.6992C12.5938 11.6602 13.6875 9.80078 13.6875 7.75ZM1 7.75C1 5.26172 2.3125 2.96484 4.5 1.70703C6.66016 0.449219 9.3125 0.449219 11.5 1.70703C13.6602 2.96484 15 5.26172 15 7.75C15 10.2656 13.6602 12.5625 11.5 13.8203C9.3125 15.0781 6.66016 15.0781 4.5 13.8203C2.3125 12.5625 1 10.2656 1 7.75ZM8.90234 10.6211C8.62891 10.8945 8.21875 10.8945 7.97266 10.6211C7.69922 10.375 7.69922 9.96484 7.97266 9.69141L9.25781 8.40625H5.15625C4.77344 8.40625 4.5 8.13281 4.5 7.75C4.5 7.39453 4.77344 7.09375 5.15625 7.09375H9.25781L7.97266 5.80859C7.69922 5.5625 7.69922 5.15234 7.97266 4.90625C8.21875 4.63281 8.62891 4.63281 8.90234 4.90625L11.3086 7.3125C11.5547 7.55859 11.5547 7.96875 11.3086 8.21484L8.90234 10.6211Z" fill="#092F42"/>
</svg>
