<svg width="16" height="16" viewBox="0 0 16 16" fill="none" xmlns="http://www.w3.org/2000/svg">
<path d="M1 2.75C1 2.34375 1.3125 2 1.75 2H14.25C14.6562 2 15 2.34375 15 2.75C15 3.1875 14.6562 3.5 14.25 3.5H1.75C1.3125 3.5 1 3.1875 1 2.75ZM3 7.75C3 7.34375 3.3125 7 3.75 7H12.25C12.6562 7 13 7.34375 13 7.75C13 8.1875 12.6562 8.5 12.25 8.5H3.75C3.3125 8.5 3 8.1875 3 7.75ZM10 12.75C10 13.1875 9.65625 13.5 9.25 13.5H6.75C6.3125 13.5 6 13.1875 6 12.75C6 12.3438 6.3125 12 6.75 12H9.25C9.65625 12 10 12.3438 10 12.75Z" fill="#092F42"/>
</svg>
