<svg width="16" height="16" viewBox="0 0 16 16" fill="none" xmlns="http://www.w3.org/2000/svg">
<path d="M3.75 3.3125C3.50391 3.3125 3.3125 3.53125 3.3125 3.75V12.5C3.3125 12.7461 3.50391 12.9375 3.75 12.9375H12.5C12.7188 12.9375 12.9375 12.7461 12.9375 12.5V3.75C12.9375 3.53125 12.7188 3.3125 12.5 3.3125H3.75ZM2 3.75C2 2.79297 2.76562 2 3.75 2H12.5C13.457 2 14.25 2.79297 14.25 3.75V12.5C14.25 13.4844 13.457 14.25 12.5 14.25H3.75C2.76562 14.25 2 13.4844 2 12.5V3.75ZM5.74609 5.88281C5.96484 5.25391 6.53906 4.84375 7.19531 4.84375H8.78125C9.73828 4.84375 10.5312 5.63672 10.5312 6.59375C10.5312 7.19531 10.1758 7.76953 9.65625 8.07031L8.78125 8.58984C8.75391 8.94531 8.48047 9.21875 8.125 9.21875C7.74219 9.21875 7.46875 8.94531 7.46875 8.5625V8.20703C7.46875 7.96094 7.57812 7.74219 7.79688 7.63281L9 6.94922C9.13672 6.86719 9.21875 6.73047 9.21875 6.59375C9.21875 6.34766 9.02734 6.18359 8.78125 6.18359H7.19531C7.11328 6.18359 7.03125 6.23828 7.00391 6.32031L6.97656 6.34766C6.86719 6.70312 6.48438 6.86719 6.15625 6.75781C5.80078 6.62109 5.63672 6.23828 5.74609 5.91016V5.88281ZM7.25 10.9688C7.25 10.5039 7.63281 10.0938 8.125 10.0938C8.58984 10.0938 9 10.5039 9 10.9688C9 11.4609 8.58984 11.8438 8.125 11.8438C7.63281 11.8438 7.25 11.4609 7.25 10.9688ZM3.75 4.40625C3.75 4.05078 4.02344 3.75 4.40625 3.75C4.76172 3.75 5.0625 4.05078 5.0625 4.40625C5.0625 4.78906 4.76172 5.0625 4.40625 5.0625C4.02344 5.0625 3.75 4.78906 3.75 4.40625ZM11.8438 3.75C12.1992 3.75 12.5 4.05078 12.5 4.40625C12.5 4.78906 12.1992 5.0625 11.8438 5.0625C11.4609 5.0625 11.1875 4.78906 11.1875 4.40625C11.1875 4.05078 11.4609 3.75 11.8438 3.75ZM3.75 11.8438C3.75 11.4883 4.02344 11.1875 4.40625 11.1875C4.76172 11.1875 5.0625 11.4883 5.0625 11.8438C5.0625 12.2266 4.76172 12.5 4.40625 12.5C4.02344 12.5 3.75 12.2266 3.75 11.8438ZM11.8438 11.1875C12.1992 11.1875 12.5 11.4883 12.5 11.8438C12.5 12.2266 12.1992 12.5 11.8438 12.5C11.4609 12.5 11.1875 12.2266 11.1875 11.8438C11.1875 11.4883 11.4609 11.1875 11.8438 11.1875Z" fill="#092F42"/>
</svg>
