<svg width="16" height="16" viewBox="0 0 16 16" fill="none" xmlns="http://www.w3.org/2000/svg">
<path d="M6.125 3.6875V4.625H9.875V3.6875C9.875 3.59375 9.78125 3.5 9.6875 3.5H6.3125C6.19531 3.5 6.125 3.59375 6.125 3.6875ZM5 4.625V3.6875C5 2.98438 5.58594 2.375 6.3125 2.375H9.6875C10.3906 2.375 11 2.98438 11 3.6875V4.625H12.5C13.3203 4.625 14 5.30469 14 6.125V12.125C14 12.9688 13.3203 13.625 12.5 13.625H3.5C2.65625 13.625 2 12.9688 2 12.125V6.125C2 5.30469 2.65625 4.625 3.5 4.625H5ZM5.375 5.75V12.5H10.625V5.75H5.375ZM3.5 5.75C3.28906 5.75 3.125 5.9375 3.125 6.125V12.125C3.125 12.3359 3.28906 12.5 3.5 12.5H4.25V5.75H3.5ZM12.5 12.5C12.6875 12.5 12.875 12.3359 12.875 12.125V6.125C12.875 5.9375 12.6875 5.75 12.5 5.75H11.75V12.5H12.5Z" fill="#092F42"/>
</svg>
