<svg width="16" height="16" viewBox="0 0 16 16" fill="none" xmlns="http://www.w3.org/2000/svg">
<path d="M6.15625 1.40625V2.5H10.0938V1.40625C10.0938 1.05078 10.3672 0.75 10.75 0.75C11.1055 0.75 11.4062 1.05078 11.4062 1.40625V2.5H12.5C13.457 2.5 14.25 3.29297 14.25 4.25V13C14.25 13.9844 13.457 14.75 12.5 14.75H3.75C2.76562 14.75 2 13.9844 2 13V4.25C2 3.29297 2.76562 2.5 3.75 2.5H4.84375V1.40625C4.84375 1.05078 5.11719 0.75 5.5 0.75C5.85547 0.75 6.15625 1.05078 6.15625 1.40625ZM3.3125 6V13C3.3125 13.2461 3.50391 13.4375 3.75 13.4375H12.5C12.7188 13.4375 12.9375 13.2461 12.9375 13V6H3.3125Z" fill="#092F42"/>
</svg>
