<svg width="16" height="16" viewBox="0 0 16 16" fill="none" xmlns="http://www.w3.org/2000/svg">
<path d="M0.5 4.66667C0.5 3.75521 1.22917 3 2.16667 3H8.83333C9.74479 3 10.5 3.75521 10.5 4.66667V11.3333C10.5 12.2708 9.74479 13 8.83333 13H2.16667C1.22917 13 0.5 12.2708 0.5 11.3333V4.66667ZM15.0573 3.9375C15.3177 4.09375 15.5 4.38021 15.5 4.66667V11.3333C15.5 11.6458 15.3177 11.9323 15.0573 12.0885C14.7708 12.2188 14.4583 12.2188 14.1979 12.0365L11.6979 10.3698L11.3333 10.1354V5.89063L11.6979 5.65625L14.1979 3.98958C14.4583 3.80729 14.7708 3.80729 15.0573 3.9375Z" fill="#092F42"/>
</svg>
