<svg width="16" height="16" viewBox="0 0 16 16" fill="none" xmlns="http://www.w3.org/2000/svg">
<path d="M0.141624 1.74531C0.341519 1.4662 0.716322 1.41545 0.966191 1.64382L2.84021 3.11551H8.81207C9.68662 3.11551 10.4112 3.85135 10.4112 4.73944V9.12914L14.0093 11.9964V5.2723L11.2108 6.541V5.22155L13.8095 4.02897C13.9344 3.97822 14.0593 3.92748 14.2092 3.92748C14.759 3.92748 15.2087 4.38421 15.2087 4.94244V12.9606L15.7584 13.4173C16.0333 13.6203 16.0833 14.0009 15.8584 14.2547C15.6585 14.5338 15.2837 14.5845 15.0338 14.3562L0.241571 2.58265C-0.0332847 2.37966 -0.0832584 1.99905 0.141624 1.74531ZM9.21186 8.1903V4.73944C9.21186 4.53645 9.01197 4.33346 8.81207 4.33346H4.38939L9.21186 8.1903ZM0.81627 4.73944C0.81627 4.6887 0.81627 4.63795 0.81627 4.5872L2.01564 5.52604V11.2352C2.01564 11.4635 2.19055 11.6412 2.41543 11.6412H8.81207C9.01197 11.6412 9.18688 11.4889 9.18688 11.2859L10.1864 12.0725C9.88651 12.5546 9.38677 12.8591 8.81207 12.8591H2.41543C1.5159 12.8591 0.81627 12.1486 0.81627 11.2352V4.73944Z" fill="#092F42"/>
</svg>
