<svg width="16" height="16" viewBox="0 0 16 16" fill="none" xmlns="http://www.w3.org/2000/svg">
<path d="M0 3.71429C0 2.77679 0.777778 2 1.77778 2H14.2222C15.1944 2 16 2.77679 16 3.71429V12.2857C16 13.25 15.1944 14 14.2222 14H1.77778C0.777778 14 0 13.25 0 12.2857V3.71429ZM5.55556 6.71429C5.94444 6.71429 6.30556 6.90179 6.52778 7.14286C6.77778 7.41071 7.19444 7.4375 7.47222 7.19643C7.75 6.98214 7.77778 6.55357 7.52778 6.28571C7.05556 5.77679 6.33333 5.42857 5.55556 5.42857C4.08333 5.42857 2.88889 6.58036 2.88889 8C2.88889 9.41964 4.08333 10.5714 5.55556 10.5714C6.33333 10.5714 7.05556 10.25 7.52778 9.71429C7.77778 9.47321 7.75 9.04464 7.47222 8.83036C7.19444 8.58929 6.77778 8.61607 6.52778 8.85714C6.30556 9.125 5.94444 9.28571 5.55556 9.28571C4.80556 9.28571 4.22222 8.72321 4.22222 8C4.22222 7.30357 4.80556 6.71429 5.55556 6.71429ZM9.55556 8C9.55556 7.30357 10.1389 6.71429 10.8889 6.71429C11.2778 6.71429 11.6389 6.90179 11.8611 7.14286C12.1111 7.41071 12.5278 7.4375 12.8056 7.19643C13.0833 6.98214 13.1111 6.55357 12.8611 6.28571C12.3889 5.77679 11.6667 5.42857 10.8889 5.42857C9.41667 5.42857 8.22222 6.58036 8.22222 8C8.22222 9.41964 9.41667 10.5714 10.8889 10.5714C11.6667 10.5714 12.3889 10.25 12.8611 9.71429C13.1111 9.47321 13.0833 9.04464 12.8056 8.83036C12.5278 8.58929 12.1111 8.61607 11.8611 8.85714C11.6389 9.125 11.2778 9.28571 10.8889 9.28571C10.1389 9.28571 9.55556 8.72321 9.55556 8Z" fill="#092F42"/>
</svg>
