<svg width="16" height="16" viewBox="0 0 16 16" fill="none" xmlns="http://www.w3.org/2000/svg">
<path d="M14.2222 3.28571H1.77778C1.52778 3.28571 1.33333 3.5 1.33333 3.71429V12.2857C1.33333 12.5268 1.52778 12.7143 1.77778 12.7143H14.2222C14.4444 12.7143 14.6667 12.5268 14.6667 12.2857V3.71429C14.6667 3.5 14.4444 3.28571 14.2222 3.28571ZM1.77778 2H14.2222C15.1944 2 16 2.77679 16 3.71429V12.2857C16 13.25 15.1944 14 14.2222 14H1.77778C0.777778 14 0 13.25 0 12.2857V3.71429C0 2.77679 0.777778 2 1.77778 2ZM5.55556 6.71429C4.80556 6.71429 4.22222 7.30357 4.22222 8C4.22222 8.72321 4.80556 9.28571 5.55556 9.28571C5.94444 9.28571 6.30556 9.125 6.52778 8.85714C6.77778 8.61607 7.19444 8.58929 7.47222 8.83036C7.75 9.04464 7.77778 9.47321 7.52778 9.71429C7.05556 10.25 6.33333 10.5714 5.55556 10.5714C4.08333 10.5714 2.88889 9.41964 2.88889 8C2.88889 6.58036 4.08333 5.42857 5.55556 5.42857C6.33333 5.42857 7.05556 5.77679 7.52778 6.28571C7.77778 6.55357 7.75 6.98214 7.47222 7.19643C7.19444 7.4375 6.77778 7.41071 6.52778 7.14286C6.30556 6.90179 5.94444 6.71429 5.55556 6.71429ZM9.55556 8C9.55556 8.72321 10.1389 9.28571 10.8889 9.28571C11.2778 9.28571 11.6389 9.125 11.8611 8.85714C12.1111 8.61607 12.5278 8.58929 12.8056 8.83036C13.0833 9.04464 13.1111 9.47321 12.8611 9.71429C12.3889 10.25 11.6667 10.5714 10.8889 10.5714C9.41667 10.5714 8.22222 9.41964 8.22222 8C8.22222 6.58036 9.41667 5.42857 10.8889 5.42857C11.6667 5.42857 12.3889 5.77679 12.8611 6.28571C13.1111 6.55357 13.0833 6.98214 12.8056 7.19643C12.5278 7.4375 12.1111 7.41071 11.8611 7.14286C11.6389 6.90179 11.2778 6.71429 10.8889 6.71429C10.1389 6.71429 9.55556 7.30357 9.55556 8Z" fill="#092F42"/>
</svg>
