<svg width="16" height="16" viewBox="0 0 16 16" fill="none" xmlns="http://www.w3.org/2000/svg">
<path fill-rule="evenodd" clip-rule="evenodd" d="M5.8724 1.16676C5.40896 1.3354 5.16357 1.54274 4.95034 1.94605C4.77949 2.26917 4.76304 2.4068 4.76304 3.51468V4.72918H5.0045C6.46218 4.72918 8.09325 5.83772 8.77442 7.29123C9.50208 8.84399 9.36789 10.4268 8.39035 11.8215L8.03597 12.3271V13.2372V14.1473L10.6814 14.1226L13.3268 14.0979L13.7229 13.8525C13.983 13.6914 14.1846 13.4831 14.3095 13.2464L14.5 12.8857V8.96304C14.5 5.47737 14.4848 5.00697 14.3638 4.74154C14.1991 4.38062 11.3073 1.45806 10.8998 1.24073C10.6435 1.10409 10.3809 1.08601 8.40417 1.06874C6.65201 1.05336 6.12818 1.07365 5.8724 1.16676ZM11.5953 4.0746L13.0664 5.54741H11.7852C11.0806 5.54741 10.4444 5.5245 10.3716 5.4966C10.0774 5.38369 9.99973 5.02767 9.99973 3.79231C9.99973 3.13748 10.0277 2.60178 10.0619 2.60178C10.0962 2.60178 10.7861 3.26455 11.5953 4.0746ZM3.96535 6.08295C3.09631 6.31696 2.44745 6.78163 1.99349 7.49505C1.22967 8.6954 1.36517 10.3502 2.31219 11.3864L2.71362 11.8256L2.73596 13.286L2.75838 14.7464L2.97308 14.8668C3.17764 14.9815 3.22387 14.9667 3.9525 14.5525L4.71722 14.1177L5.12879 14.3508C6.29641 15.0123 6.27424 15.0044 6.51128 14.8491L6.7268 14.7078V13.2511V11.7945L6.94249 11.5961C7.78191 10.8241 8.15429 9.4422 7.82331 8.32768C7.48399 7.18494 6.64457 6.39158 5.44381 6.07886C4.87318 5.93026 4.52895 5.93116 3.96535 6.08295ZM5.33712 8.15454C6.15592 8.59238 6.13407 9.93035 5.30169 10.3254C4.7367 10.5934 3.98253 10.4119 3.6946 9.93837C3.4344 9.5106 3.41403 9.11032 3.63037 8.68042C3.95095 8.04376 4.69881 7.81326 5.33712 8.15454Z" fill="#092F42"/>
</svg>
