<svg width="16" height="16" viewBox="0 0 16 16" fill="none" xmlns="http://www.w3.org/2000/svg">
<path d="M13.3922 7.54933C13.624 7.80686 13.624 8.19314 13.3922 8.42491L8.44774 13.3694C8.19021 13.6269 7.80393 13.6269 7.57216 13.3694C7.31463 13.1376 7.31463 12.7513 7.57216 12.5195L12.0788 8.01288L7.57216 3.48047C7.31463 3.2487 7.31463 2.86241 7.57216 2.63064C7.80393 2.37312 8.19021 2.37312 8.42198 2.63064L13.3922 7.54933ZM3.50329 2.60489L8.44774 7.54933C8.67951 7.80686 8.67951 8.19314 8.44774 8.42491L3.50329 13.3694C3.24577 13.6269 2.85948 13.6269 2.62771 13.3694C2.37019 13.1376 2.37019 12.7513 2.62771 12.5195L7.13437 8.01288L2.62771 3.48047C2.37019 3.2487 2.37019 2.86241 2.62771 2.63064C2.85948 2.37312 3.24577 2.37312 3.47754 2.63064L3.50329 2.60489Z" fill="#092F42"/>
</svg>
