<svg width="16" height="16" viewBox="0 0 16 16" fill="none" xmlns="http://www.w3.org/2000/svg">
<path d="M2.62771 7.54933L7.57216 2.63064C7.80393 2.37312 8.19021 2.37312 8.44774 2.63064C8.67951 2.86241 8.67951 3.2487 8.44774 3.48047L3.91533 7.98712L8.42198 12.5195C8.67951 12.7513 8.67951 13.1376 8.42198 13.3694C8.19021 13.6269 7.80393 13.6269 7.57216 13.3694L2.62771 8.42491C2.37019 8.19314 2.37019 7.80686 2.62771 7.54933ZM12.5166 2.60489V2.63064C12.7484 2.37312 13.1347 2.37312 13.3922 2.63064C13.624 2.86241 13.624 3.2487 13.3922 3.48047L8.85977 8.01288L13.3664 12.5195C13.624 12.7513 13.624 13.1376 13.3664 13.3694C13.1347 13.6269 12.7484 13.6269 12.5166 13.3694L7.57216 8.42491C7.31463 8.19314 7.31463 7.80686 7.57216 7.54933L12.5166 2.60489Z" fill="#092F42"/>
</svg>
