<svg width="16" height="16" viewBox="0 0 16 16" fill="none" xmlns="http://www.w3.org/2000/svg">
<path d="M8.45067 2.62742L13.3694 7.57187C13.6269 7.80364 13.6269 8.18992 13.3694 8.44745C13.1376 8.67922 12.7513 8.67922 12.5195 8.44745L8.01288 3.91504L3.48047 8.42169C3.2487 8.67922 2.86241 8.67922 2.63064 8.42169C2.37312 8.18992 2.37312 7.80364 2.63064 7.57187L7.57509 2.62742C7.80686 2.3699 8.19314 2.3699 8.45067 2.62742ZM13.3951 12.5163L13.3694 12.5163C13.6269 12.7481 13.6269 13.1344 13.3694 13.3919C13.1376 13.6237 12.7513 13.6237 12.5195 13.3919L7.98712 8.85948L3.48047 13.3661C3.2487 13.6237 2.86241 13.6237 2.63064 13.3661C2.37312 13.1344 2.37312 12.7481 2.63064 12.5163L7.57509 7.57187C7.80686 7.31434 8.19314 7.31434 8.45067 7.57187L13.3951 12.5163Z" fill="#092F42"/>
</svg>
