<svg width="16" height="16" viewBox="0 0 16 16" fill="none" xmlns="http://www.w3.org/2000/svg">
<path d="M7.54933 13.3726L2.63064 8.42815C2.37312 8.19638 2.37312 7.81009 2.63064 7.55257C2.86241 7.3208 3.2487 7.3208 3.48047 7.55257L7.98712 12.085L12.5195 7.57832C12.7513 7.3208 13.1376 7.3208 13.3694 7.57832C13.6269 7.81009 13.6269 8.19638 13.3694 8.42815L8.42491 13.3726C8.19314 13.6301 7.80686 13.6301 7.54933 13.3726ZM2.60489 3.4837L2.63064 3.4837C2.37312 3.25193 2.37312 2.86565 2.63064 2.60812C2.86241 2.37635 3.2487 2.37635 3.48047 2.60812L8.01288 7.14053L12.5195 2.63388C12.7513 2.37635 13.1376 2.37635 13.3694 2.63388C13.6269 2.86565 13.6269 3.25193 13.3694 3.4837L8.42491 8.42815C8.19314 8.68567 7.80686 8.68567 7.54933 8.42815L2.60489 3.4837Z" fill="#092F42"/>
</svg>
