<svg width="16" height="16" viewBox="0 0 16 16" fill="none" xmlns="http://www.w3.org/2000/svg">
<path d="M12.7892 4.27244L9.04215 8.01952L12.758 11.7354C13.0703 12.0164 13.0703 12.4848 12.758 12.7658C12.477 13.0781 12.0086 13.0781 11.7276 12.7658L7.98048 9.04996L4.26464 12.7658C3.98361 13.0781 3.51522 13.0781 3.23419 12.7658C2.92194 12.4848 2.92194 12.0164 3.23419 11.7041L6.95004 7.98829L3.23419 4.27244C2.92194 3.99141 2.92194 3.52303 3.23419 3.21077C3.51522 2.92974 3.98361 2.92974 4.29586 3.21077L8.01171 6.95785L11.7276 3.242C12.0086 2.92974 12.477 2.92974 12.7892 3.242C13.0703 3.52303 13.0703 3.99141 12.7892 4.27244Z" fill="#092F42"/>
</svg>
