<svg width="16" height="16" viewBox="0 0 16 16" fill="none" xmlns="http://www.w3.org/2000/svg">
<path d="M10.8 3.17857V12.8214H13.6C13.775 12.8214 13.95 12.6496 13.95 12.4286V3.57143C13.95 3.375 13.775 3.17857 13.6 3.17857H10.8ZM9.75 3.17857H6.25V12.8214H9.75V3.17857ZM5.2 12.8214V3.17857H2.4C2.20312 3.17857 2.05 3.375 2.05 3.57143V12.4286C2.05 12.6496 2.20312 12.8214 2.4 12.8214H5.2ZM1 3.57143C1 2.71205 1.6125 2 2.4 2H13.6C14.3656 2 15 2.71205 15 3.57143V12.4286C15 13.3125 14.3656 14 13.6 14H2.4C1.6125 14 1 13.3125 1 12.4286V3.57143Z" fill="#092F42"/>
</svg>
