<svg width="16" height="16" viewBox="0 0 16 16" fill="none" xmlns="http://www.w3.org/2000/svg">
<path d="M12.375 9.9375C12.5938 9.9375 12.8125 9.74609 12.8125 9.5V3.92188L10.9531 2.0625H7.125C6.87891 2.0625 6.6875 2.28125 6.6875 2.5V9.5C6.6875 9.74609 6.87891 9.9375 7.125 9.9375H12.375ZM7.125 11.25C6.14062 11.25 5.375 10.4844 5.375 9.5V2.5C5.375 1.54297 6.14062 0.75 7.125 0.75H10.9531C11.2812 0.75 11.6367 0.914062 11.8828 1.16016L13.7148 2.99219C13.9609 3.23828 14.125 3.59375 14.125 3.92188V9.5C14.125 10.4844 13.332 11.25 12.375 11.25H7.125ZM3.625 4.25H4.5V5.5625H3.625C3.37891 5.5625 3.1875 5.78125 3.1875 6V13C3.1875 13.2461 3.37891 13.4375 3.625 13.4375H8.875C9.09375 13.4375 9.3125 13.2461 9.3125 13V12.125H10.625V13C10.625 13.9844 9.83203 14.75 8.875 14.75H3.625C2.64062 14.75 1.875 13.9844 1.875 13V6C1.875 5.04297 2.64062 4.25 3.625 4.25Z" fill="#092F42"/>
</svg>
