<svg width="16" height="16" viewBox="0 0 16 16" fill="none" xmlns="http://www.w3.org/2000/svg">
<path d="M6.21484 2.0625C6.13281 2.0625 6.07812 2.11719 6.02344 2.17188L5.50391 2.9375H9.46875L8.94922 2.17188C8.92188 2.11719 8.83984 2.0625 8.75781 2.0625H6.21484ZM11.0547 2.9375H12.9688C13.3242 2.9375 13.625 3.23828 13.625 3.59375C13.625 3.97656 13.3242 4.25 12.9688 4.25H12.6406L11.9844 13.1367C11.9023 14.0664 11.1641 14.75 10.2344 14.75H4.73828C3.80859 14.75 3.07031 14.0664 2.98828 13.1367L2.33203 4.25H2.03125C1.64844 4.25 1.375 3.97656 1.375 3.59375C1.375 3.23828 1.64844 2.9375 2.03125 2.9375H3.91797L4.92969 1.43359C5.20312 1.02344 5.69531 0.75 6.21484 0.75H8.75781C9.27734 0.75 9.76953 1.02344 10.043 1.43359L11.0547 2.9375ZM11.3281 4.25H3.64453L4.30078 13.0547C4.32812 13.2734 4.51953 13.4375 4.73828 13.4375H10.2344C10.4531 13.4375 10.6445 13.2734 10.6719 13.0547L11.3281 4.25Z" fill="#092F42"/>
</svg>
