<svg width="16" height="16" viewBox="0 0 16 16" fill="none" xmlns="http://www.w3.org/2000/svg">
<path d="M8 14.75C5.48438 14.75 3.1875 13.4375 1.92969 11.25C0.671875 9.08984 0.671875 6.4375 1.92969 4.25C3.1875 2.08984 5.48438 0.75 8 0.75C10.4883 0.75 12.7852 2.08984 14.043 4.25C15.3008 6.4375 15.3008 9.08984 14.043 11.25C12.7852 13.4375 10.4883 14.75 8 14.75ZM5.48438 9.66406C5.32031 9.47266 5.04688 9.47266 4.85547 9.60938C4.66406 9.77344 4.66406 10.0469 4.80078 10.2383C5.42969 10.9492 6.46875 11.6875 8 11.6875C9.50391 11.6875 10.543 10.9492 11.1719 10.2383C11.3086 10.0469 11.3086 9.77344 11.1172 9.60938C10.9258 9.47266 10.6523 9.47266 10.4883 9.66406C10.0234 10.2383 9.17578 10.8125 8 10.8125C6.79688 10.8125 5.97656 10.2383 5.48438 9.66406ZM4.9375 6.4375C4.9375 6.92969 5.32031 7.3125 5.8125 7.3125C6.30469 7.3125 6.6875 6.92969 6.6875 6.4375C6.6875 5.97266 6.30469 5.5625 5.8125 5.5625C5.32031 5.5625 4.9375 5.97266 4.9375 6.4375ZM10.1875 5.5625C9.69531 5.5625 9.3125 5.97266 9.3125 6.4375C9.3125 6.92969 9.69531 7.3125 10.1875 7.3125C10.6797 7.3125 11.0625 6.92969 11.0625 6.4375C11.0625 5.97266 10.6797 5.5625 10.1875 5.5625Z" fill="#092F42"/>
</svg>
