<svg width="16" height="16" viewBox="0 0 16 16" fill="none" xmlns="http://www.w3.org/2000/svg">
<path d="M4.19141 14.3398L1.56641 11.7148C1.29297 11.4688 1.29297 11.0586 1.56641 10.7852L4.19141 8.1875C4.4375 7.91406 4.84766 7.91406 5.09375 8.1875C5.36719 8.43359 5.36719 8.84375 5.09375 9.08984L3.58984 10.5938H12.9688C13.3242 10.5938 13.625 10.8945 13.625 11.25C13.625 11.6328 13.3242 11.9062 12.9688 11.9062L3.58984 11.9336L5.09375 13.4375C5.36719 13.6836 5.36719 14.0938 5.09375 14.3398C4.84766 14.6133 4.4375 14.6133 4.19141 14.3398ZM13.4336 4.71484L10.8086 7.33984C10.5352 7.61328 10.125 7.61328 9.87891 7.33984C9.60547 7.09375 9.60547 6.68359 9.87891 6.41016L11.3828 4.90625H2.03125C1.64844 4.90625 1.375 4.63281 1.375 4.25C1.375 3.89453 1.64844 3.59375 2.03125 3.59375H11.3828L9.87891 2.08984C9.60547 1.84375 9.60547 1.43359 9.87891 1.16016C10.125 0.914062 10.5352 0.914062 10.8086 1.16016L13.4336 3.8125C13.6797 4.05859 13.6797 4.46875 13.4336 4.71484Z" fill="#092F42"/>
</svg>
