<svg width="16" height="16" viewBox="0 0 16 16" fill="none" xmlns="http://www.w3.org/2000/svg">
<path d="M10.0625 2H13.4375C13.7422 2 14 2.25781 14 2.5625V5.9375C14 6.17188 13.8594 6.38281 13.6484 6.47656C13.4375 6.54688 13.1797 6.5 13.0391 6.33594L12.125 5.42188L10.0859 7.46094C9.85156 7.69531 9.5 7.69531 9.28906 7.46094L8.53906 6.71094C8.30469 6.5 8.30469 6.14844 8.53906 5.9375L10.5781 3.89844L9.66406 2.96094C9.5 2.82031 9.45313 2.5625 9.52344 2.35156C9.61719 2.14063 9.82813 2 10.0625 2ZM5.9375 14H2.5625C2.23438 14 2 13.7656 2 13.4375V10.0625C2 9.85156 2.11719 9.64063 2.32813 9.54688C2.53906 9.47656 2.79688 9.52344 2.96094 9.66406L3.875 10.5781L5.91406 8.53906C6.125 8.32813 6.47656 8.32813 6.6875 8.53906L7.4375 9.28906C7.67188 9.52344 7.67188 9.875 7.4375 10.0859L5.39844 12.125L6.3125 13.0391C6.47656 13.2031 6.52344 13.4609 6.45313 13.6719C6.35938 13.8828 6.14844 14 5.91406 14H5.9375Z" fill="#092F42"/>
</svg>
