<svg width="16" height="16" viewBox="0 0 16 16" fill="none" xmlns="http://www.w3.org/2000/svg">
<path d="M1 2.5C1 1.54297 1.76562 0.75 2.75 0.75H13.25C14.207 0.75 15 1.54297 15 2.5V10.375C15 11.3594 14.207 12.125 13.25 12.125H9.44922L6.05859 14.668C5.92188 14.7773 5.75781 14.7773 5.59375 14.7227C5.45703 14.6406 5.375 14.5039 5.375 14.3125V12.125H2.75C1.76562 12.125 1 11.3594 1 10.375V2.5ZM4.28125 6C3.89844 6 3.625 6.30078 3.625 6.65625C3.625 7.03906 3.89844 7.3125 4.28125 7.3125H8.21875C8.57422 7.3125 8.875 7.03906 8.875 6.65625C8.875 6.30078 8.57422 6 8.21875 6H4.28125ZM10.4062 6C10.0234 6 9.75 6.30078 9.75 6.65625C9.75 7.03906 10.0234 7.3125 10.4062 7.3125H11.7188C12.0742 7.3125 12.375 7.03906 12.375 6.65625C12.375 6.30078 12.0742 6 11.7188 6H10.4062ZM4.28125 8.1875C3.89844 8.1875 3.625 8.48828 3.625 8.84375C3.625 9.22656 3.89844 9.5 4.28125 9.5H5.59375C5.94922 9.5 6.25 9.22656 6.25 8.84375C6.25 8.48828 5.94922 8.1875 5.59375 8.1875H4.28125ZM7.78125 8.1875C7.39844 8.1875 7.125 8.48828 7.125 8.84375C7.125 9.22656 7.39844 9.5 7.78125 9.5H11.7188C12.0742 9.5 12.375 9.22656 12.375 8.84375C12.375 8.48828 12.0742 8.1875 11.7188 8.1875H7.78125Z" fill="#092F42"/>
</svg>
