<svg width="16" height="16" viewBox="0 0 16 16" fill="none" xmlns="http://www.w3.org/2000/svg">
<path d="M4.0625 13.25C4.0625 13.4961 4.25391 13.6875 4.5 13.6875H11.5C11.7188 13.6875 11.9375 13.4961 11.9375 13.25V5.375H9.75C9.25781 5.375 8.875 4.99219 8.875 4.5V2.3125H4.5C4.25391 2.3125 4.0625 2.53125 4.0625 2.75V13.25ZM4.5 1H9.01172C9.47656 1 9.91406 1.19141 10.2422 1.51953L12.7305 4.00781C13.0586 4.33594 13.25 4.77344 13.25 5.23828V13.25C13.25 14.2344 12.457 15 11.5 15H4.5C3.51562 15 2.75 14.2344 2.75 13.25V2.75C2.75 1.79297 3.51562 1 4.5 1ZM8.65625 7.34375V10.1602L9.50391 9.3125C9.75 9.03906 10.1602 9.03906 10.4336 9.3125C10.6797 9.55859 10.6797 9.96875 10.4336 10.2148L8.46484 12.1836C8.19141 12.457 7.78125 12.457 7.53516 12.1836L5.56641 10.2148C5.29297 9.96875 5.29297 9.55859 5.56641 9.3125C5.8125 9.03906 6.22266 9.03906 6.49609 9.3125L7.34375 10.1602V7.34375C7.34375 6.98828 7.61719 6.6875 8 6.6875C8.35547 6.6875 8.65625 6.98828 8.65625 7.34375Z" fill="#092F42"/>
</svg>
