<svg width="16" height="16" viewBox="0 0 16 16" fill="none" xmlns="http://www.w3.org/2000/svg">
<path d="M0 2.3125C0 1.59375 0.5625 1 1.28125 1H14.6875C15.4062 1 16 1.59375 16 2.3125C16 2.625 15.875 2.90625 15.6875 3.125L10.5 9.53125V14C10.5 14.5625 10.0312 15 9.46875 15C9.25 15 9.03125 14.9375 8.84375 14.7812L5.96875 12.5C5.65625 12.25 5.5 11.9062 5.5 11.5312V9.53125L0.28125 3.125C0.09375 2.90625 0 2.625 0 2.3125ZM1.71875 2.5L6.8125 8.78125C6.9375 8.9375 7 9.09375 7 9.25V11.4062L9 13V9.25C9 9.09375 9.03125 8.9375 9.15625 8.78125L14.2812 2.5H1.71875Z" fill="#092F42"/>
</svg>
