<svg width="16" height="16" viewBox="0 0 16 16" fill="none" xmlns="http://www.w3.org/2000/svg">
<path d="M5.64286 2C5.99107 2 6.28571 2.29464 6.28571 2.64286C6.28571 3.01786 5.99107 3.28571 5.64286 3.28571H3.28571V5.64286C3.28571 6.01786 2.99107 6.28571 2.64286 6.28571C2.26786 6.28571 2 6.01786 2 5.64286V2.64286C2 2.29464 2.26786 2 2.64286 2H5.64286ZM2 10.3571C2 10.0089 2.26786 9.71429 2.64286 9.71429C2.99107 9.71429 3.28571 10.0089 3.28571 10.3571V12.7143H5.64286C5.99107 12.7143 6.28571 13.0089 6.28571 13.3571C6.28571 13.7321 5.99107 14 5.64286 14H2.64286C2.26786 14 2 13.7321 2 13.3571V10.3571ZM13.3571 2C13.7054 2 14 2.29464 14 2.64286V5.64286C14 6.01786 13.7054 6.28571 13.3571 6.28571C12.9821 6.28571 12.7143 6.01786 12.7143 5.64286V3.28571H10.3571C9.98214 3.28571 9.71429 3.01786 9.71429 2.64286C9.71429 2.29464 9.98214 2 10.3571 2H13.3571ZM12.7143 10.3571C12.7143 10.0089 12.9821 9.71429 13.3571 9.71429C13.7054 9.71429 14 10.0089 14 10.3571V13.3571C14 13.7321 13.7054 14 13.3571 14H10.3571C9.98214 14 9.71429 13.7321 9.71429 13.3571C9.71429 13.0089 9.98214 12.7143 10.3571 12.7143H12.7143V10.3571Z" fill="#092F42"/>
</svg>
