<svg width="24" height="24" viewBox="0 0 24 24" fill="none" xmlns="http://www.w3.org/2000/svg">
<path d="M16.5312 4.88889L16.8867 6.25C16.9414 6.36111 17.0508 6.44444 17.1875 6.44444C17.2969 6.44444 17.4062 6.36111 17.4609 6.25L17.8438 4.88889L19.1562 4.52778C19.2656 4.47222 19.375 4.36111 19.375 4.22222C19.375 4.11111 19.2656 4 19.1562 3.94444L17.8438 3.55556L17.4609 2.22222C17.4062 2.11111 17.2969 2 17.1875 2C17.0508 2 16.9414 2.11111 16.8867 2.22222L16.5312 3.55556L15.1914 3.94444C15.082 4 15 4.11111 15 4.22222C15 4.36111 15.082 4.47222 15.1914 4.52778L16.5312 4.88889Z" fill="#092F42"/>
<path d="M18.6641 8.47222L19.7031 8.77778L20.0039 9.83333C20.0312 9.94444 20.1406 10 20.25 10C20.332 10 20.4414 9.94444 20.4688 9.83333L20.7695 8.77778L21.8086 8.47222C21.918 8.44444 22 8.33333 22 8.22222C22 8.13889 21.918 8.02778 21.8086 8L20.7695 7.69444L20.4688 6.63889C20.4414 6.52778 20.332 6.44444 20.25 6.44444C20.1406 6.44444 20.0312 6.52778 20.0039 6.63889L19.7031 7.69444L18.6641 8C18.5547 8.02778 18.5 8.13889 18.5 8.22222C18.5 8.33333 18.5547 8.44444 18.6641 8.47222Z" fill="#092F42"/>
<path d="M16.5312 4.88889L16.8867 6.25C16.9414 6.36111 17.0508 6.44444 17.1875 6.44444C17.2969 6.44444 17.4062 6.36111 17.4609 6.25L17.8438 4.88889L19.1562 4.52778C19.2656 4.47222 19.375 4.36111 19.375 4.22222C19.375 4.11111 19.2656 4 19.1562 3.94444L17.8438 3.55556L17.4609 2.22222C17.4062 2.11111 17.2969 2 17.1875 2C17.0508 2 16.9414 2.11111 16.8867 2.22222L16.5312 3.55556L15.1914 3.94444C15.082 4 15 4.11111 15 4.22222C15 4.36111 15.082 4.47222 15.1914 4.52778L16.5312 4.88889Z" stroke="#092F42" stroke-width="0.5"/>
<path d="M18.6641 8.47222L19.7031 8.77778L20.0039 9.83333C20.0312 9.94444 20.1406 10 20.25 10C20.332 10 20.4414 9.94444 20.4688 9.83333L20.7695 8.77778L21.8086 8.47222C21.918 8.44444 22 8.33333 22 8.22222C22 8.13889 21.918 8.02778 21.8086 8L20.7695 7.69444L20.4688 6.63889C20.4414 6.52778 20.332 6.44444 20.25 6.44444C20.1406 6.44444 20.0312 6.52778 20.0039 6.63889L19.7031 7.69444L18.6641 8C18.5547 8.02778 18.5 8.13889 18.5 8.22222C18.5 8.33333 18.5547 8.44444 18.6641 8.47222Z" stroke="#092F42" stroke-width="0.5"/>
<path d="M10.5 13.5L11.3125 16.5625C11.4375 16.8125 11.6875 18 12 18C12.25 18 12.5 16.8125 12.625 16.5625L13.5 13.5C13.5 13.5 17 12.3125 17 12C17 11.75 13.5 10.5 13.5 10.5L12.625 7.5C12.5 7.25 12.25 6 12 6C11.6875 6 11.4375 7.25 11.3125 7.5L10.5 10.5C10.5 10.5 7 11.75 7 12C7 12.3125 10.5 13.5 10.5 13.5Z" fill="#092F42" stroke="#092F42" stroke-linejoin="round"/>
</svg>
