<svg width="16" height="16" viewBox="0 0 16 16" fill="none" xmlns="http://www.w3.org/2000/svg">
<path d="M8.01367 13.6875C8.20508 13.6875 8.75195 13.4961 9.29883 12.375C9.54492 11.8828 9.76367 11.3086 9.90039 10.625H6.09961C6.26367 11.3086 6.45508 11.8828 6.70117 12.375C7.27539 13.4961 7.79492 13.6875 8.01367 13.6875ZM5.88086 9.3125H10.1191C10.1738 8.90234 10.2012 8.46484 10.2012 8C10.2012 7.5625 10.1738 7.125 10.1191 6.6875H5.88086C5.82617 7.125 5.82617 7.5625 5.82617 8C5.82617 8.46484 5.82617 8.90234 5.88086 9.3125ZM6.09961 5.375H9.90039C9.76367 4.71875 9.54492 4.14453 9.29883 3.65234C8.75195 2.53125 8.20508 2.3125 8.01367 2.3125C7.79492 2.3125 7.27539 2.53125 6.70117 3.65234C6.45508 4.14453 6.26367 4.71875 6.09961 5.375ZM11.4316 6.6875C11.4863 7.125 11.4863 7.5625 11.4863 8C11.4863 8.46484 11.4863 8.90234 11.4316 9.3125H13.5371C13.6465 8.90234 13.7012 8.46484 13.7012 8C13.7012 7.5625 13.6465 7.125 13.5371 6.6875H11.4316ZM13.0449 5.375C12.4707 4.25391 11.5137 3.35156 10.3652 2.83203C10.748 3.54297 11.0488 4.41797 11.2402 5.375H13.0449ZM4.75977 5.375C4.95117 4.41797 5.25195 3.54297 5.63477 2.83203C4.48633 3.35156 3.5293 4.25391 2.95508 5.375H4.75977ZM2.46289 6.6875C2.38086 7.125 2.32617 7.5625 2.32617 8C2.32617 8.46484 2.35352 8.90234 2.46289 9.3125H4.56836C4.51367 8.90234 4.51367 8.46484 4.51367 8C4.51367 7.5625 4.51367 7.125 4.56836 6.6875H2.46289ZM10.3652 13.1953C11.5137 12.6758 12.4707 11.7734 13.0449 10.625H11.2402C11.0488 11.6094 10.748 12.4844 10.3652 13.1953ZM5.63477 13.1953C5.25195 12.4844 4.95117 11.6094 4.75977 10.625H2.95508C3.5293 11.7734 4.48633 12.6758 5.63477 13.1953ZM8.01367 15C5.49805 15 3.20117 13.6875 1.94336 11.5C0.685547 9.33984 0.685547 6.6875 1.94336 4.5C3.20117 2.33984 5.49805 1 8.01367 1C10.502 1 12.7988 2.33984 14.0566 4.5C15.3145 6.6875 15.3145 9.33984 14.0566 11.5C12.7988 13.6875 10.502 15 8.01367 15Z" fill="#092F42"/>
</svg>
