<svg width="16" height="16" viewBox="0 0 16 16" fill="none" xmlns="http://www.w3.org/2000/svg">
<path d="M8.00468 3.28459C7.92973 3.28459 7.87976 3.31135 7.8048 3.33811L2.35799 5.42557L3.48233 5.88053C3.60726 5.80024 3.73219 5.74672 3.85711 5.69319L7.85477 4.08746C8.05466 4.00717 8.30451 4.11422 8.37946 4.35508C8.45442 4.56918 8.35448 4.81004 8.12961 4.89033L4.60668 6.30873L7.8048 7.53979C7.87976 7.56655 7.92973 7.56655 8.00468 7.56655C8.05466 7.56655 8.12961 7.56655 8.17958 7.53979L13.6264 5.42557L8.17958 3.33811C8.12961 3.31135 8.05466 3.28459 8.00468 3.28459ZM0.38415 6.0411C0.159282 5.96082 0.00936951 5.71996 0.00936951 5.42557C0.00936951 5.15795 0.159282 4.91709 0.38415 4.8368L7.40504 2.13381C7.57993 2.05352 7.77982 2 8.00468 2C8.20457 2 8.40445 2.05352 8.57935 2.13381L15.6002 4.8368C15.8251 4.91709 16 5.15795 16 5.42557C16 5.71996 15.8251 5.96082 15.6002 6.0411L8.57935 8.74409C8.40445 8.82438 8.20457 8.87791 8.00468 8.87791C7.77982 8.87791 7.57993 8.82438 7.40504 8.74409L3.15752 7.1116C2.48292 7.75389 2.05817 8.63705 2.0082 9.62725C2.15811 10.0019 2.25805 10.3766 2.33301 10.7513C2.48292 11.4738 2.60785 12.5176 2.38298 13.6684C2.35799 13.7754 2.30802 13.8825 2.20808 13.936C2.10814 13.9895 2.0082 14.0163 1.90826 13.9895L0.309194 13.5613C0.159282 13.5345 0.0593402 13.4275 0.00936951 13.2937C-0.0156158 13.1599 0.00936951 12.9993 0.0843256 12.8922C0.284208 12.5711 0.484091 12.2232 0.634003 11.8753C0.933828 11.2597 1.20867 10.4836 1.20867 9.70754V9.68077C1.23365 8.58352 1.6584 7.56655 2.33301 6.79045L0.38415 6.0411ZM12.4021 8.18209L12.8019 12.0626C12.8019 13.0261 10.6531 13.9895 8.00468 13.9895C5.35624 13.9895 3.2075 13.0261 3.2075 12.0626L3.58228 8.18209L4.7316 8.63705L4.43178 11.8485C4.53172 11.9556 4.7316 12.0626 5.03143 12.1964C5.756 12.4908 6.80539 12.7049 8.00468 12.7049C9.20398 12.7049 10.2534 12.4908 10.953 12.1964C11.2528 12.0626 11.4527 11.9556 11.5526 11.8485L11.2528 8.63705L12.4021 8.18209ZM11.6775 11.7415C11.6775 11.7682 11.6775 11.7682 11.6525 11.7682C11.6525 11.7415 11.6525 11.7415 11.6525 11.7415V11.7147C11.6775 11.7147 11.6775 11.7415 11.6775 11.7415ZM4.30685 11.7415C4.30685 11.7147 4.30685 11.7147 4.33184 11.7147V11.7415C4.35682 11.7415 4.35682 11.7415 4.33184 11.7682C4.30685 11.7682 4.30685 11.7682 4.30685 11.7415Z" fill="#092F42"/>
</svg>
