<svg width="16" height="16" viewBox="0 0 16 16" fill="none" xmlns="http://www.w3.org/2000/svg">
<path d="M7.2 2.5C7.2 1.9475 6.7525 1.5 6.2 1.5H5C4.4475 1.5 4 1.9475 4 2.5V3.7C4 4.2525 4.4475 4.7 5 4.7H6.2C6.7525 4.7 7.2 4.2525 7.2 3.7V2.5ZM7.2 7.3C7.2 6.7475 6.7525 6.3 6.2 6.3H5C4.4475 6.3 4 6.7475 4 7.3V8.5C4 9.0525 4.4475 9.5 5 9.5H6.2C6.7525 9.5 7.2 9.0525 7.2 8.5V7.3ZM4 12.1V13.3C4 13.8525 4.4475 14.3 5 14.3H6.2C6.7525 14.3 7.2 13.8525 7.2 13.3V12.1C7.2 11.5475 6.7525 11.1 6.2 11.1H5C4.4475 11.1 4 11.5475 4 12.1ZM12 2.5C12 1.9475 11.5525 1.5 11 1.5H9.8C9.2475 1.5 8.8 1.9475 8.8 2.5V3.7C8.8 4.2525 9.2475 4.7 9.8 4.7H11C11.5525 4.7 12 4.2525 12 3.7V2.5ZM8.8 7.3V8.5C8.8 9.0525 9.2475 9.5 9.8 9.5H11C11.5525 9.5 12 9.0525 12 8.5V7.3C12 6.7475 11.5525 6.3 11 6.3H9.8C9.2475 6.3 8.8 6.7475 8.8 7.3ZM12 12.1C12 11.5475 11.5525 11.1 11 11.1H9.8C9.2475 11.1 8.8 11.5475 8.8 12.1V13.3C8.8 13.8525 9.2475 14.3 9.8 14.3H11C11.5525 14.3 12 13.8525 12 13.3V12.1Z" fill="#092F42"/>
</svg>
