<svg width="16" height="16" viewBox="0 0 16 16" fill="none" xmlns="http://www.w3.org/2000/svg">
<path d="M2.33984 7.91406C2.61328 7.83203 2.88672 7.75 3.1875 7.75C3.89844 7.75 4.5 8.35156 4.5 9.0625V12.5625C4.5 13.3008 3.89844 13.875 3.1875 13.875C1.95703 13.875 1 12.918 1 11.6875V8.625C1 4.76953 4.11719 1.625 8 1.625C11.8555 1.625 15 4.76953 15 8.625V11.6875C15 12.918 14.0156 13.875 12.8125 13.875C12.0742 13.875 11.5 13.3008 11.5 12.5625V9.0625C11.5 8.35156 12.0742 7.75 12.8125 7.75C13.0859 7.75 13.3867 7.83203 13.6328 7.91406C13.2773 5.125 10.8984 2.9375 8 2.9375C5.07422 2.9375 2.69531 5.125 2.33984 7.91406ZM2.3125 9.9375V11.6875C2.3125 12.1797 2.69531 12.5625 3.1875 12.5625V9.0625C2.69531 9.0625 2.3125 9.47266 2.3125 9.9375ZM13.6875 9.9375C13.6875 9.47266 13.2773 9.0625 12.8125 9.0625V12.5625C13.2773 12.5625 13.6875 12.1797 13.6875 11.6875V9.9375Z" fill="#092F42"/>
</svg>
