<svg width="16" height="16" viewBox="0 0 16 16" fill="none" xmlns="http://www.w3.org/2000/svg">
<path d="M7.27344 12.85L7.22656 12.7797L3.54688 9.35779H5.1875L8 11.9593L10.7891 9.35779H12.4297L8.75 12.7797L8.70312 12.85C8.51562 13.014 8.25781 13.1312 8 13.1312C7.71875 13.1312 7.48438 13.014 7.27344 12.85ZM2 6.38122V6.31091C2 4.67029 3.17188 3.2406 4.78906 2.93591C5.70312 2.74841 6.64062 2.95935 7.41406 3.49841C7.625 3.63904 7.8125 3.82654 8 4.01404C8.09375 3.92029 8.1875 3.8031 8.30469 3.70935C8.39844 3.63904 8.49219 3.56872 8.58594 3.49841C9.33594 2.95935 10.2734 2.74841 11.1875 2.93591C12.8281 3.2406 14 4.67029 14 6.31091V6.38122C14 7.20154 13.6953 7.99841 13.2031 8.60779H10.6953C10.2734 8.60779 9.875 8.37341 9.6875 7.99841L9.5 7.57654L8.32812 9.92029C8.25781 10.0375 8.11719 10.1312 7.97656 10.1078C7.83594 10.1078 7.69531 10.0375 7.64844 9.89685L6.3125 6.94372L5.89062 7.9281C5.72656 8.34997 5.32812 8.60779 4.85938 8.60779H2.77344C2.28125 7.99841 2 7.20154 2 6.38122ZM12.3594 7.85779C12.6875 7.43591 12.8516 6.92029 12.8516 6.38122V6.31091C12.8516 5.18591 12.0781 4.24841 10.9766 4.03747C10.1797 3.87341 9.35938 4.15466 8.82031 4.76404L8.39844 5.23279C8.39844 5.25622 8.39844 5.25622 8.375 5.25622C8.28125 5.37341 8.14062 5.42029 7.97656 5.42029C7.83594 5.42029 7.69531 5.37341 7.60156 5.25622C7.57812 5.25622 7.57812 5.25622 7.57812 5.23279L7.15625 4.76404C6.61719 4.15466 5.79688 3.89685 5 4.03747C3.89844 4.24841 3.125 5.20935 3.125 6.31091V6.38122C3.125 6.92029 3.28906 7.45935 3.61719 7.85779H4.85938C5.02344 7.85779 5.16406 7.78747 5.21094 7.64685L5.96094 5.84216C6.00781 5.70154 6.14844 5.63122 6.28906 5.60779C6.45312 5.60779 6.59375 5.70154 6.64062 5.84216L8 8.8656L9.14844 6.56872C9.21875 6.45154 9.33594 6.38122 9.5 6.38122C9.64062 6.38122 9.75781 6.45154 9.82812 6.56872L10.3672 7.67029C10.4375 7.78747 10.5547 7.85779 10.6953 7.85779H12.3594Z" fill="#092F42"/>
</svg>
