<svg width="16" height="16" viewBox="0 0 16 16" fill="none" xmlns="http://www.w3.org/2000/svg">
<path d="M5.59418 11.2773C6.30512 11.5508 7.12543 11.6875 8.00043 11.6875C11.3911 11.6875 13.6879 9.5 13.6879 7.3125C13.6879 5.15234 11.3911 2.9375 8.00043 2.9375C4.58247 2.9375 2.31293 5.15234 2.31293 7.3125C2.31293 8.1875 2.64106 9.03516 3.26997 9.77344C3.51606 10.0195 3.62543 10.375 3.59809 10.7305C3.57075 11.2227 3.43403 11.6875 3.29731 12.0703C3.76215 11.8789 4.14497 11.6328 4.36372 11.4688C4.71918 11.1953 5.18403 11.1406 5.59418 11.2773ZM1.71137 12.3438C1.98481 11.9062 2.2309 11.3047 2.28559 10.6211C1.46528 9.69141 1.00043 8.57031 1.00043 7.3125C1.00043 4.19531 4.11762 1.625 8.00043 1.625C11.8559 1.625 15.0004 4.19531 15.0004 7.3125C15.0004 10.457 11.8559 13 8.00043 13C6.98872 13 6.03168 12.8359 5.15668 12.5352C4.82856 12.7539 4.28168 13.082 3.65278 13.3555C3.24262 13.5469 2.77778 13.7109 2.28559 13.793C2.28559 13.793 2.25825 13.8203 2.2309 13.8203C2.12153 13.8477 1.98481 13.8477 1.87543 13.875H1.84809C1.71137 13.875 1.57465 13.9023 1.43793 13.9023C1.24653 13.9023 1.08247 13.793 1.02778 13.6289C0.945747 13.4648 1.00043 13.2734 1.10981 13.1367C1.21918 13.0273 1.32856 12.8906 1.43793 12.7812C1.46528 12.6992 1.51997 12.6445 1.54731 12.5898L1.57465 12.5625C1.62934 12.5078 1.65668 12.4258 1.71137 12.3438ZM5.62153 4.85156C5.84028 4.22266 6.4145 3.8125 7.07075 3.8125H8.65668C9.61372 3.8125 10.3793 4.60547 10.3793 5.5625C10.3793 6.16406 10.0512 6.73828 9.53168 7.03906L8.62934 7.55859C8.62934 7.91406 8.3559 8.1875 7.97309 8.1875C7.61762 8.1875 7.31684 7.91406 7.31684 7.53125V7.17578C7.31684 6.92969 7.45356 6.71094 7.67231 6.60156L8.87543 5.91797C9.01215 5.83594 9.06684 5.69922 9.06684 5.5625C9.06684 5.31641 8.90278 5.125 8.65668 5.125H7.07075C6.98872 5.125 6.90668 5.20703 6.87934 5.28906L6.852 5.31641C6.74262 5.64453 6.35981 5.83594 6.03168 5.72656C5.67622 5.58984 5.51215 5.20703 5.62153 4.87891V4.85156ZM8.87543 9.9375C8.87543 10.4297 8.46528 10.8125 8.00043 10.8125C7.50825 10.8125 7.12543 10.4297 7.12543 9.9375C7.12543 9.47266 7.50825 9.0625 8.00043 9.0625C8.46528 9.0625 8.87543 9.47266 8.87543 9.9375Z" fill="#092F42"/>
</svg>
