<svg width="16" height="16" viewBox="0 0 16 16" fill="none" xmlns="http://www.w3.org/2000/svg">
<path d="M10.6016 12.1797L9.24219 10.8203C8.86719 11.0312 8.44531 11.125 8 11.125C7.53125 11.125 7.10938 11.0312 6.73438 10.8203L5.375 12.1797C6.125 12.6953 7.01562 13 8 13C8.96094 13 9.85156 12.6953 10.6016 12.1797ZM12.7109 12.2031H12.7344C12.9453 12.4844 12.8984 12.9062 12.6406 13.1641C12.3828 13.4219 11.9609 13.4453 11.6797 13.2344C10.6484 14.0312 9.38281 14.5 8 14.5C6.59375 14.5 5.32812 14.0312 4.29688 13.2344C4.01562 13.4453 3.59375 13.4219 3.33594 13.1641C3.07812 12.9062 3.05469 12.4844 3.26562 12.2031C2.46875 11.1719 2 9.90625 2 8.5C2 7.11719 2.46875 5.85156 3.26562 4.82031C3.05469 4.53906 3.07812 4.11719 3.33594 3.85938C3.59375 3.60156 4.01562 3.55469 4.29688 3.76562C5.32812 2.99219 6.59375 2.5 8 2.5C9.38281 2.5 10.6484 2.99219 11.6797 3.76562C11.9609 3.55469 12.3828 3.60156 12.6406 3.85938C12.8984 4.11719 12.9219 4.53906 12.7109 4.82031C13.5078 5.85156 13.9766 7.11719 13.9766 8.5C13.9766 9.90625 13.5078 11.1719 12.7109 12.2031ZM11.6562 11.125C12.1719 10.375 12.5 9.48438 12.5 8.5C12.5 7.53906 12.1719 6.64844 11.6562 5.89844L10.2969 7.25781C10.5078 7.63281 10.6016 8.05469 10.6016 8.5C10.6016 8.96875 10.5078 9.39062 10.2969 9.76562L11.6562 11.125ZM10.6016 4.84375C9.85156 4.32812 8.96094 4 8 4C7.01562 4 6.125 4.32812 5.375 4.84375L6.73438 6.20312C7.10938 5.99219 7.53125 5.875 7.97656 5.875C8.44531 5.875 8.86719 5.99219 9.24219 6.20312L10.6016 4.84375ZM5.67969 9.76562C5.46875 9.39062 5.375 8.96875 5.375 8.52344C5.375 8.05469 5.46875 7.63281 5.67969 7.25781L4.32031 5.89844C3.80469 6.64844 3.5 7.53906 3.5 8.5C3.5 9.48438 3.80469 10.375 4.32031 11.125L5.67969 9.76562ZM6.875 8.5C6.875 8.92188 7.08594 9.27344 7.4375 9.48438C7.76562 9.69531 8.21094 9.69531 8.5625 9.48438C8.89062 9.27344 9.125 8.92188 9.125 8.5C9.125 8.10156 8.89062 7.75 8.5625 7.53906C8.21094 7.32812 7.76562 7.32812 7.4375 7.53906C7.08594 7.75 6.875 8.10156 6.875 8.5Z" fill="#092F42"/>
</svg>
