<svg width="18" height="16" viewBox="0 0 18 16" fill="none" xmlns="http://www.w3.org/2000/svg">
<path d="M1.05733 0.914061L4.11983 3.29297C5.35029 2.36328 6.88154 1.625 8.76826 1.625C10.9558 1.625 12.7331 2.63672 14.0183 3.83984C15.3034 5.01562 16.1511 6.4375 16.5612 7.42187C16.6433 7.64062 16.6433 7.88672 16.5612 8.10547C16.2058 8.98047 15.4675 10.2383 14.3737 11.332L17.2448 13.6016C17.5456 13.8203 17.6003 14.2305 17.3542 14.5039C17.1355 14.8047 16.7253 14.8594 16.4519 14.6133L0.264357 1.92578C-0.0364242 1.70703 -0.0911117 1.29687 0.154982 1.02344C0.373732 0.722655 0.783888 0.667967 1.05733 0.914061ZM5.18623 4.14062L6.44404 5.125C7.07295 4.57812 7.86592 4.25 8.76826 4.25C10.6823 4.25 12.2683 5.83594 12.2683 7.75C12.2683 8.35156 12.1315 8.89844 11.8581 9.36328L13.3347 10.5117C14.2917 9.58203 14.948 8.51562 15.2761 7.75C14.9206 6.92969 14.1823 5.78125 13.1159 4.79687C11.9948 3.75781 10.5456 2.9375 8.76826 2.9375C7.37373 2.9375 6.19795 3.42969 5.18623 4.14062ZM10.7917 8.54297C10.9011 8.29687 10.9558 8.02344 10.9558 7.75C10.9558 6.54687 9.97139 5.5625 8.76826 5.5625C8.74092 5.5625 8.71358 5.5625 8.71358 5.5625C8.74092 5.72656 8.76826 5.86328 8.76826 6C8.76826 6.30078 8.68623 6.54687 8.57686 6.79297L10.7917 8.54297ZM12.2136 13C11.2019 13.5469 10.0534 13.875 8.76826 13.875C6.55342 13.875 4.77608 12.8906 3.49092 11.6875C2.20576 10.4844 1.35811 9.0625 0.947951 8.10547C0.86592 7.88672 0.86592 7.64062 0.947951 7.42187C1.22139 6.79297 1.65889 6 2.28779 5.17969L3.29951 6C2.80733 6.6289 2.45186 7.25781 2.23311 7.75C2.61592 8.57031 3.32686 9.74609 4.39326 10.7305C5.51436 11.7695 6.96358 12.5625 8.76826 12.5625C9.58858 12.5625 10.3542 12.3984 11.0651 12.0977L12.2136 13ZM9.80733 11.1133C9.4792 11.1953 9.12373 11.25 8.74092 11.25C6.82686 11.25 5.24092 9.6914 5.24092 7.75C5.24092 7.69531 5.26826 7.61328 5.26826 7.53125L6.79951 8.73437C7.07295 9.30859 7.61983 9.74609 8.27608 9.88281L9.80733 11.1133Z" fill="#092F42"/>
</svg>
