<svg width="16" height="16" viewBox="0 0 16 16" fill="none" xmlns="http://www.w3.org/2000/svg">
<path d="M10.8711 7.55859C11.2539 7.01172 11.5 6.32812 11.5 5.5625C11.5 3.64844 9.91406 2.0625 8 2.0625C6.05859 2.0625 4.5 3.64844 4.5 5.5625C4.5 6.32812 4.71875 7.01172 5.10156 7.55859C5.21094 7.72266 5.32031 7.88672 5.45703 8.05078C5.8125 8.54297 6.22266 9.11719 6.55078 9.69141C6.82422 10.2109 6.98828 10.7578 7.04297 11.25H5.73047C5.64844 10.9219 5.56641 10.6211 5.40234 10.3203C5.12891 9.82812 4.80078 9.36328 4.44531 8.89844C4.30859 8.70703 4.17188 8.51562 4.03516 8.32422C3.48828 7.53125 3.1875 6.60156 3.1875 5.5625C3.1875 2.91016 5.32031 0.75 8 0.75C10.6523 0.75 12.8125 2.91016 12.8125 5.5625C12.8125 6.60156 12.4844 7.53125 11.9375 8.32422C11.8008 8.51562 11.6641 8.70703 11.5273 8.89844C11.1719 9.36328 10.8438 9.82812 10.5703 10.3203C10.4062 10.6211 10.3242 10.9219 10.2422 11.25H8.92969C9.01172 10.7578 9.14844 10.2109 9.42188 9.69141C9.75 9.11719 10.1602 8.54297 10.5156 8.05078C10.6523 7.88672 10.7617 7.72266 10.8711 7.55859ZM8 4.25C7.26172 4.25 6.6875 4.85156 6.6875 5.5625C6.6875 5.80859 6.46875 6 6.25 6C6.00391 6 5.8125 5.80859 5.8125 5.5625C5.8125 4.35938 6.76953 3.375 8 3.375C8.21875 3.375 8.4375 3.59375 8.4375 3.8125C8.4375 4.05859 8.21875 4.25 8 4.25ZM8 14.75C6.76953 14.75 5.8125 13.793 5.8125 12.5625V12.125H10.1875V12.5625C10.1875 13.793 9.20312 14.75 8 14.75Z" fill="#092F42"/>
</svg>
