<svg width="16" height="16" viewBox="0 0 16 16" fill="none" xmlns="http://www.w3.org/2000/svg">
<path d="M3.05078 3.05078C4.30859 1.79297 6.05859 1 8 1C11.8555 1 15 4.14453 15 8C15 11.8828 11.8555 15 8 15C6.49609 15 5.12891 14.5352 3.98047 13.7695C3.59766 13.4688 3.48828 12.9219 3.76172 12.5391C4.03516 12.1289 4.58203 12.0469 4.99219 12.3203C5.83984 12.9219 6.87891 13.25 8 13.25C10.8984 13.25 13.25 10.8984 13.25 8C13.25 5.10156 10.8984 2.75 8 2.75C6.55078 2.75 5.23828 3.35156 4.28125 4.30859L5.12891 5.12891C5.53906 5.56641 5.23828 6.25 4.66406 6.25H1.65625C1.27344 6.25 1 5.97656 1 5.59375V2.58594C1 2.01172 1.68359 1.71094 2.12109 2.12109L3.05078 3.05078ZM8 4.5H7.97266C8.35547 4.5 8.62891 4.80078 8.62891 5.15625V7.75391L10.4062 9.53125C10.6797 9.77734 10.6797 10.1875 10.4062 10.4336C10.1602 10.707 9.75 10.707 9.50391 10.4336L7.53516 8.46484C7.39844 8.35547 7.34375 8.19141 7.34375 8V5.15625C7.34375 4.80078 7.61719 4.5 8 4.5Z" fill="#092F42"/>
</svg>
