<svg width="16" height="16" viewBox="0 0 16 16" fill="none" xmlns="http://www.w3.org/2000/svg">
<path d="M7.56283 0.914062C7.80892 0.722656 8.16439 0.722656 8.41048 0.914062L15.6292 7.03906C15.9027 7.28516 15.9574 7.69531 15.7113 7.96875C15.4652 8.24219 15.055 8.26953 14.7816 8.05078L14.1253 7.47656V12.5625C14.1253 13.793 13.141 14.75 11.9378 14.75H4.06283C2.83236 14.75 1.87533 13.793 1.87533 12.5625V7.47656L1.19173 8.05078C0.918294 8.26953 0.508138 8.24219 0.262044 7.96875C0.0432943 7.69531 0.070638 7.28516 0.344076 7.03906L7.56283 0.914062ZM8.00033 2.28125L3.18783 6.35547V12.5625C3.18783 13.0547 3.57064 13.4375 4.06283 13.4375H5.37533V9.28125C5.37533 8.67969 5.84017 8.1875 6.46908 8.1875H9.53158C10.1331 8.1875 10.6253 8.67969 10.6253 9.28125V13.4375H11.9378C12.4027 13.4375 12.8128 13.0547 12.8128 12.5625V6.35547L8.00033 2.28125ZM6.68783 13.4375H9.31283V9.5H6.68783V13.4375Z" fill="#092F42"/>
</svg>
