<svg width="16" height="16" viewBox="0 0 16 16" fill="none" xmlns="http://www.w3.org/2000/svg">
<path d="M7.35156 8.35156V8.375C7.5625 8.14063 7.91406 8.14063 8.14844 8.375C8.35938 8.58594 8.35938 8.9375 8.14844 9.14844L6.32031 10.9766C7.32812 11.6328 8.71094 11.5156 9.60156 10.625C10.6094 9.59375 10.6094 7.92969 9.60156 6.89844C8.57031 5.89063 6.90625 5.89063 5.875 6.89844C4.98438 7.78906 4.86719 9.14844 5.52344 10.1797L7.35156 8.35156ZM5.07812 11.4219C4.09375 10.4844 3.69531 9.07813 4.04688 7.76563C4.375 6.42969 5.40625 5.39844 6.74219 5.07031C8.05469 4.71875 9.46094 5.11719 10.3984 6.10156C11.3828 7.03906 11.7812 8.44531 11.4297 9.75781C11.1016 11.0938 10.0703 12.125 8.73438 12.4531C7.42188 12.8047 6.01562 12.4063 5.07812 11.4219ZM1.75 9.5C1.32812 9.5 1 9.17188 1 8.75C1 8.35156 1.32812 8 1.75 8C2.14844 8 2.5 8.35156 2.5 8.75C2.5 9.17188 2.14844 9.5 1.75 9.5ZM4 13.25C4 13.6719 3.64844 14 3.25 14C2.82812 14 2.5 13.6719 2.5 13.25C2.5 12.8516 2.82812 12.5 3.25 12.5C3.64844 12.5 4 12.8516 4 13.25Z" fill="#092F42"/>
</svg>
