<svg width="16" height="16" viewBox="0 0 16 16" fill="none" xmlns="http://www.w3.org/2000/svg">
<path d="M7.75 3.5C7.32812 3.5 7 3.17188 7 2.75C7 2.35156 7.32812 2 7.75 2C8.14844 2 8.5 2.35156 8.5 2.75C8.5 3.17188 8.14844 3.5 7.75 3.5ZM5.125 8.75C5.125 10.2031 6.29688 11.375 7.75 11.375C9.17969 11.375 10.375 10.2031 10.375 8.75C10.375 7.50781 9.48438 6.45312 8.3125 6.19531V8.75C8.3125 9.07812 8.05469 9.3125 7.75 9.3125C7.42188 9.3125 7.1875 9.07812 7.1875 8.75V6.19531C5.99219 6.45312 5.125 7.50781 5.125 8.75ZM7.75 5C9.08594 5 10.3047 5.72656 10.9844 6.875C11.6641 8.04688 11.6641 9.47656 10.9844 10.625C10.3047 11.7969 9.08594 12.5 7.75 12.5C6.39062 12.5 5.17188 11.7969 4.49219 10.625C3.8125 9.47656 3.8125 8.04688 4.49219 6.875C5.17188 5.72656 6.39062 5 7.75 5ZM1.75 9.5C1.32812 9.5 1 9.17188 1 8.75C1 8.35156 1.32812 8 1.75 8C2.14844 8 2.5 8.35156 2.5 8.75C2.5 9.17188 2.14844 9.5 1.75 9.5ZM4 4.25C4 4.67188 3.64844 5 3.25 5C2.82812 5 2.5 4.67188 2.5 4.25C2.5 3.85156 2.82812 3.5 3.25 3.5C3.64844 3.5 4 3.85156 4 4.25ZM4 13.25C4 13.6719 3.64844 14 3.25 14C2.82812 14 2.5 13.6719 2.5 13.25C2.5 12.8516 2.82812 12.5 3.25 12.5C3.64844 12.5 4 12.8516 4 13.25Z" fill="#092F42"/>
</svg>
