<svg width="16" height="16" viewBox="0 0 16 16" fill="none" xmlns="http://www.w3.org/2000/svg">
<path d="M8 0.75C8.21875 0.75 8.46484 0.804688 8.65625 0.914062L14.3984 3.34766C14.7539 3.51172 15 3.86719 15 4.25C15 4.66016 14.7539 5.01562 14.3984 5.17969L8.65625 7.61328C8.46484 7.72266 8.21875 7.75 8 7.75C7.75391 7.75 7.53516 7.72266 7.31641 7.61328L1.57422 5.17969C1.21875 5.01562 1 4.66016 1 4.25C1 3.86719 1.21875 3.51172 1.57422 3.34766L7.31641 0.914062C7.53516 0.804688 7.75391 0.75 8 0.75ZM7.83594 2.11719L2.80469 4.25L7.83594 6.41016C7.89062 6.4375 7.94531 6.4375 8 6.4375C8.05469 6.4375 8.10938 6.4375 8.13672 6.41016L13.168 4.25L8.13672 2.11719C8.10938 2.08984 8.05469 2.0625 8 2.0625C7.94531 2.0625 7.89062 2.08984 7.83594 2.11719ZM1.57422 6.84766L2.44922 6.49219L4.11719 7.20312L2.80469 7.75L7.83594 9.91016C7.89062 9.9375 7.94531 9.9375 8 9.9375C8.05469 9.9375 8.10938 9.9375 8.13672 9.91016L13.168 7.75L11.8828 7.20312L13.5234 6.49219L14.3984 6.84766C14.7539 7.01172 15 7.36719 15 7.75C15 8.16016 14.7539 8.51562 14.3984 8.67969L8.65625 11.1133C8.46484 11.2227 8.21875 11.25 8 11.25C7.75391 11.25 7.53516 11.2227 7.31641 11.1133L1.57422 8.67969C1.21875 8.51562 1 8.16016 1 7.75C1 7.36719 1.21875 7.01172 1.57422 6.84766ZM1.57422 10.3477L2.44922 9.99219L4.11719 10.7031L2.80469 11.25L7.83594 13.4102C7.89062 13.4375 7.94531 13.4375 8 13.4375C8.05469 13.4375 8.10938 13.4375 8.13672 13.4102L13.168 11.25L11.8828 10.7031L13.5234 9.99219L14.3984 10.3477C14.7539 10.5117 15 10.8672 15 11.25C15 11.6602 14.7539 12.0156 14.3984 12.1797L8.65625 14.6133C8.46484 14.7227 8.21875 14.75 8 14.75C7.75391 14.75 7.53516 14.7227 7.31641 14.6133L1.57422 12.1797C1.21875 12.0156 1 11.6602 1 11.25C1 10.8672 1.21875 10.5117 1.57422 10.3477Z" fill="#092F42"/>
</svg>
