<svg width="16" height="16" viewBox="0 0 16 16" fill="none" xmlns="http://www.w3.org/2000/svg">
<path d="M1.875 3.15625C1.875 1.84375 2.94141 0.75 4.28125 0.75H12.5938C13.4141 0.75 14.125 1.46094 14.125 2.28125V10.1562C14.125 10.7852 13.7422 11.3047 13.25 11.5508V13.4375H13.4688C13.8242 13.4375 14.125 13.7383 14.125 14.0938C14.125 14.4766 13.8242 14.75 13.4688 14.75H4.0625C2.83203 14.75 1.875 13.793 1.875 12.5625C1.875 12.5078 1.875 12.4258 1.875 12.3438V3.15625ZM4.0625 11.6875C3.57031 11.6875 3.1875 12.0977 3.1875 12.5625C3.1875 13.0547 3.57031 13.4375 4.0625 13.4375H11.9375V11.6875H4.0625ZM3.1875 10.5664C3.43359 10.457 3.73438 10.375 4.0625 10.375H12.5938C12.7031 10.375 12.8125 10.293 12.8125 10.1562V2.28125C12.8125 2.17188 12.7031 2.0625 12.5938 2.0625H4.28125C3.65234 2.0625 3.1875 2.55469 3.1875 3.15625V10.5664ZM6.03125 3.8125H10.8438C11.1992 3.8125 11.5 4.11328 11.5 4.46875C11.5 4.85156 11.1992 5.125 10.8438 5.125H6.03125C5.64844 5.125 5.375 4.85156 5.375 4.46875C5.375 4.11328 5.64844 3.8125 6.03125 3.8125ZM6.03125 6H10.8438C11.1992 6 11.5 6.30078 11.5 6.65625C11.5 7.03906 11.1992 7.3125 10.8438 7.3125H6.03125C5.64844 7.3125 5.375 7.03906 5.375 6.65625C5.375 6.30078 5.64844 6 6.03125 6Z" fill="#092F42"/>
</svg>
