<svg width="16" height="16" viewBox="0 0 16 16" fill="none" xmlns="http://www.w3.org/2000/svg">
<path d="M9.55859 1.65235C10.2695 1.81641 10.7344 2.5 10.5977 3.21094L10.5156 3.51172C10.3789 4.25 10.1055 4.9336 9.75 5.5625H13.6875C14.3984 5.5625 15 6.16407 15 6.875C15 7.39454 14.6992 7.83204 14.2891 8.05079C14.5898 8.29688 14.7812 8.65235 14.7812 9.0625C14.7812 9.71875 14.3164 10.2383 13.7148 10.375C13.8242 10.5664 13.9062 10.7852 13.9062 11.0313C13.9062 11.6328 13.5234 12.125 12.9766 12.2891C13.0039 12.3711 13.0312 12.4805 13.0312 12.5625C13.0312 13.3008 12.4297 13.875 11.7188 13.875H9.03906C8.51953 13.875 8.02734 13.7383 7.58984 13.4375L6.52344 12.7539C5.8125 12.2617 5.375 11.4414 5.375 10.5664V7.53125C5.375 6.71094 5.73047 5.97266 6.35938 5.48047L6.55078 5.31641C7.26172 4.71485 7.78125 3.92188 7.94531 2.99219L8 2.69141C8.16406 1.98047 8.84766 1.51563 9.55859 1.65235ZM1.875 6H3.625C4.08984 6 4.5 6.41016 4.5 6.875V13C4.5 13.4922 4.08984 13.875 3.625 13.875H1.875C1.38281 13.875 1 13.4922 1 13V6.875C1 6.41016 1.38281 6 1.875 6Z" fill="#092F42"/>
</svg>
