<svg width="16" height="16" viewBox="0 0 16 16" fill="none" xmlns="http://www.w3.org/2000/svg">
<path d="M9.83203 1.70702C10.8984 2.0078 11.5 3.10155 11.1992 4.14062L11.0352 4.68749C10.9531 4.98827 10.8438 5.28905 10.707 5.56249H13.25C14.207 5.56249 15 6.35546 15 7.31249C15 7.80468 14.7812 8.24218 14.4805 8.5703C14.5352 8.73437 14.5625 8.89843 14.5625 9.08984C14.5625 9.63671 14.2891 10.1562 13.8516 10.4844C13.8789 10.5937 13.9062 10.7031 13.9062 10.8398C13.9062 11.3867 13.6328 11.8789 13.25 12.207C13.1953 13.1367 12.4297 13.9023 11.5 13.9023H8.82031C8.21875 13.9023 7.61719 13.7109 7.125 13.3828L5.42969 12.2617C5.12891 12.043 5.04688 11.6601 5.26562 11.332C5.45703 11.0312 5.86719 10.9492 6.16797 11.168L7.86328 12.2891C8.13672 12.4805 8.46484 12.5898 8.82031 12.5898H11.5C11.7188 12.5898 11.9375 12.3711 11.9375 12.1523C11.9375 12.0976 11.9102 12.0703 11.9102 12.0156C11.8281 11.6875 11.9922 11.3594 12.293 11.2226C12.457 11.168 12.5938 11.0039 12.5938 10.8398C12.5938 10.7305 12.5391 10.6211 12.4844 10.5664C12.3477 10.375 12.3203 10.1289 12.4023 9.91015C12.457 9.6914 12.6484 9.55468 12.8945 9.49999C13.0859 9.47265 13.25 9.28124 13.25 9.06249C13.25 8.95312 13.1953 8.87109 13.1406 8.78905C12.9766 8.62499 12.9219 8.40624 12.9766 8.18749C13.0312 7.96874 13.1953 7.80468 13.3867 7.72265C13.5508 7.66796 13.6875 7.5039 13.6875 7.31249C13.6875 7.09374 13.4688 6.87499 13.25 6.87499H9.58594C9.33984 6.87499 9.12109 6.73827 9.01172 6.51952C8.90234 6.30077 8.90234 6.05468 9.03906 5.86327C9.36719 5.39843 9.61328 4.8789 9.77734 4.33202L9.94141 3.78515C10.0234 3.42968 9.83203 3.07421 9.47656 2.96484C9.12109 2.8828 8.76562 3.07421 8.65625 3.42968L8.51953 3.97655C8.35547 4.52343 8.08203 5.01562 7.69922 5.45312L6.27734 6.98437C6.03125 7.2578 5.62109 7.28515 5.34766 7.03905C5.10156 6.79296 5.07422 6.3828 5.32031 6.10937L6.71484 4.57812C6.96094 4.30468 7.15234 3.97655 7.26172 3.62109L7.39844 3.07421C7.69922 2.0078 8.79297 1.40624 9.83203 1.70702ZM1.875 5.99999H3.625C4.08984 5.99999 4.5 6.41015 4.5 6.87499V13C4.5 13.4922 4.08984 13.875 3.625 13.875H1.875C1.38281 13.875 1 13.4922 1 13V6.87499C1 6.41015 1.38281 5.99999 1.875 5.99999Z" fill="#092F42"/>
</svg>
