<svg width="16" height="16" viewBox="0 0 16 16" fill="none" xmlns="http://www.w3.org/2000/svg">
<path d="M14.8893 8.2978L11.9008 11.2862C10.3934 12.7672 7.98678 12.7672 6.50579 11.2862C5.10413 9.85814 5.02479 7.6102 6.32066 6.10276L6.45289 5.94409C6.69091 5.67962 7.0876 5.65318 7.35207 5.89119C7.61653 6.12921 7.64298 6.5259 7.40496 6.79037L7.29917 6.9226C6.4 7.92756 6.45289 9.43499 7.40496 10.3871C8.38347 11.3656 9.99669 11.3656 11.0017 10.3871L13.9901 7.39863C14.9686 6.39367 14.9686 4.8069 13.9901 3.80194C13.038 2.87632 11.5306 2.82342 10.5256 3.69615L10.3669 3.82838C10.1025 4.0664 9.70579 4.03995 9.46777 3.77549C9.22975 3.51103 9.2562 3.11433 9.52066 2.87632L9.67934 2.74409C11.1868 1.42177 13.4612 1.50111 14.8893 2.90276C16.3702 4.38375 16.3702 6.79037 14.8893 8.2978ZM1.11074 7.68954L4.12562 4.70111C5.60661 3.22012 8.01322 3.22012 9.49421 4.70111C10.9223 6.10276 11.0017 8.37714 9.67934 9.88458L9.52066 10.0433C9.30909 10.3077 8.88595 10.3606 8.62149 10.1226C8.35702 9.88458 8.33058 9.48789 8.5686 9.22342L8.72727 9.06475C9.6 8.05979 9.54711 6.55235 8.59504 5.60028C7.61653 4.59533 6.00331 4.59533 5.02479 5.60028L2.00992 8.58871C1.0314 9.56723 1.0314 11.1804 2.00992 12.1854C2.96198 13.111 4.46942 13.1639 5.47438 12.2912L5.63306 12.159C5.89752 11.9209 6.29421 11.9474 6.53223 12.2119C6.77025 12.4763 6.7438 12.873 6.47934 13.111L6.32066 13.2433C4.81322 14.5656 2.53884 14.4862 1.11074 13.0846C-0.370248 11.6036 -0.370248 9.17053 1.11074 7.68954Z" fill="#092F42"/>
</svg>
