<svg width="16" height="16" viewBox="0 0 16 16" fill="none" xmlns="http://www.w3.org/2000/svg">
<path d="M2.09375 2.0625H3.40625C3.76172 2.0625 4.0625 2.36328 4.0625 2.71875V4.03125C4.0625 4.41406 3.76172 4.6875 3.40625 4.6875H2.09375C1.71094 4.6875 1.4375 4.41406 1.4375 4.03125V2.71875C1.4375 2.36328 1.71094 2.0625 2.09375 2.0625ZM6.03125 2.71875H14.3438C14.6992 2.71875 15 3.01953 15 3.375C15 3.75781 14.6992 4.03125 14.3438 4.03125H6.03125C5.64844 4.03125 5.375 3.75781 5.375 3.375C5.375 3.01953 5.64844 2.71875 6.03125 2.71875ZM6.03125 7.09375H14.3438C14.6992 7.09375 15 7.39453 15 7.75C15 8.13281 14.6992 8.40625 14.3438 8.40625H6.03125C5.64844 8.40625 5.375 8.13281 5.375 7.75C5.375 7.39453 5.64844 7.09375 6.03125 7.09375ZM6.03125 11.4688H14.3438C14.6992 11.4688 15 11.7695 15 12.125C15 12.5078 14.6992 12.7812 14.3438 12.7812H6.03125C5.64844 12.7812 5.375 12.5078 5.375 12.125C5.375 11.7695 5.64844 11.4688 6.03125 11.4688ZM1.4375 7.09375C1.4375 6.73828 1.71094 6.4375 2.09375 6.4375H3.40625C3.76172 6.4375 4.0625 6.73828 4.0625 7.09375V8.40625C4.0625 8.78906 3.76172 9.0625 3.40625 9.0625H2.09375C1.71094 9.0625 1.4375 8.78906 1.4375 8.40625V7.09375ZM2.09375 10.8125H3.40625C3.76172 10.8125 4.0625 11.1133 4.0625 11.4688V12.7812C4.0625 13.1641 3.76172 13.4375 3.40625 13.4375H2.09375C1.71094 13.4375 1.4375 13.1641 1.4375 12.7812V11.4688C1.4375 11.1133 1.71094 10.8125 2.09375 10.8125Z" fill="#092F42"/>
</svg>
