<svg width="16" height="16" viewBox="0 0 16 16" fill="none" xmlns="http://www.w3.org/2000/svg">
<path d="M5.9375 6.0625V7H9.0625V6.0625C9.0625 5.20312 8.35938 4.5 7.5 4.5C6.62109 4.5 5.9375 5.20312 5.9375 6.0625ZM4.6875 7V6.0625C4.6875 4.51953 5.9375 3.25 7.5 3.25C9.04297 3.25 10.3125 4.51953 10.3125 6.0625V7H10.625C11.3086 7 11.875 7.56641 11.875 8.25V12C11.875 12.7031 11.3086 13.25 10.625 13.25H4.375C3.67188 13.25 3.125 12.7031 3.125 12V8.25C3.125 7.56641 3.67188 7 4.375 7H4.6875Z" fill="#092F42"/>
</svg>
