<svg width="17" height="16" viewBox="0 0 17 16" fill="none" xmlns="http://www.w3.org/2000/svg">
<path d="M11.0249 4.29999V6.04999H11.8999C12.8569 6.04999 13.6499 6.84296 13.6499 7.79999V13.05C13.6499 14.0344 12.8569 14.8 11.8999 14.8H3.1499C2.16553 14.8 1.3999 14.0344 1.3999 13.05V7.79999C1.3999 6.84296 2.16553 6.04999 3.1499 6.04999H9.7124V4.29999C9.7124 2.38593 11.271 0.799988 13.2124 0.799988C15.1265 0.799988 16.7124 2.38593 16.7124 4.29999V6.26874C16.7124 6.65155 16.4116 6.92499 16.0562 6.92499C15.6733 6.92499 15.3999 6.65155 15.3999 6.26874V4.29999C15.3999 3.09686 14.4155 2.11249 13.2124 2.11249C11.9819 2.11249 11.0249 3.09686 11.0249 4.29999ZM3.1499 7.36249C2.90381 7.36249 2.7124 7.58124 2.7124 7.79999V13.05C2.7124 13.2961 2.90381 13.4875 3.1499 13.4875H11.8999C12.1187 13.4875 12.3374 13.2961 12.3374 13.05V7.79999C12.3374 7.58124 12.1187 7.36249 11.8999 7.36249H3.1499Z" fill="#092F42"/>
</svg>
