<svg width="16" height="16" viewBox="0 0 16 16" fill="none" xmlns="http://www.w3.org/2000/svg">
<path d="M5.7373 4.5V6.25H10.1123V4.5C10.1123 3.29688 9.12793 2.3125 7.9248 2.3125C6.69434 2.3125 5.7373 3.29688 5.7373 4.5ZM4.4248 6.25V4.5C4.4248 2.58594 5.9834 1 7.9248 1C9.83887 1 11.4248 2.58594 11.4248 4.5V6.25H12.2998C13.2568 6.25 14.0498 7.04297 14.0498 8V13.25C14.0498 14.2344 13.2568 15 12.2998 15H3.5498C2.56543 15 1.7998 14.2344 1.7998 13.25V8C1.7998 7.04297 2.56543 6.25 3.5498 6.25H4.4248ZM3.1123 8V13.25C3.1123 13.4961 3.30371 13.6875 3.5498 13.6875H12.2998C12.5186 13.6875 12.7373 13.4961 12.7373 13.25V8C12.7373 7.78125 12.5186 7.5625 12.2998 7.5625H3.5498C3.30371 7.5625 3.1123 7.78125 3.1123 8Z" fill="#092F42"/>
</svg>
