<svg width="16" height="16" viewBox="0 0 16 16" fill="none" xmlns="http://www.w3.org/2000/svg">
<path d="M11.3086 4.02344L14.6719 7.38672C14.8633 7.57812 15 7.85156 15 8.125C15 8.42578 14.8633 8.69922 14.6719 8.89062L11.3086 12.2539C11.1445 12.418 10.8984 12.5 10.6523 12.5C10.1602 12.5 9.75 12.0898 9.75 11.5977V9.875H6.25C5.75781 9.875 5.375 9.49219 5.375 9V7.25C5.375 6.78516 5.75781 6.375 6.25 6.375H9.75V4.67969C9.75 4.1875 10.1602 3.75 10.6523 3.75C10.8984 3.75 11.1445 3.85938 11.3086 4.02344ZM5.375 3.75H3.625C3.13281 3.75 2.75 4.16016 2.75 4.625V11.625C2.75 12.1172 3.13281 12.5 3.625 12.5H5.375C5.83984 12.5 6.25 12.9102 6.25 13.375C6.25 13.8672 5.83984 14.25 5.375 14.25H3.625C2.17578 14.25 1 13.0742 1 11.625V4.625C1 3.17578 2.17578 2 3.625 2H5.375C5.83984 2 6.25 2.41016 6.25 2.875C6.25 3.36719 5.83984 3.75 5.375 3.75Z" fill="#092F42"/>
</svg>
