<svg width="16" height="16" viewBox="0 0 16 16" fill="none" xmlns="http://www.w3.org/2000/svg">
<path d="M2.75 3.8125C2.50391 3.8125 2.3125 4.03125 2.3125 4.25V4.87891L7.01562 8.73438C7.58984 9.19922 8.38281 9.19922 8.95703 8.73438L13.6875 4.87891V4.25C13.6875 4.03125 13.4688 3.8125 13.25 3.8125H2.75ZM2.3125 6.57422V11.25C2.3125 11.4961 2.50391 11.6875 2.75 11.6875H13.25C13.4688 11.6875 13.6875 11.4961 13.6875 11.25V6.57422L9.80469 9.74609C8.73828 10.6211 7.23438 10.6211 6.19531 9.74609L2.3125 6.57422ZM1 4.25C1 3.29297 1.76562 2.5 2.75 2.5H13.25C14.207 2.5 15 3.29297 15 4.25V11.25C15 12.2344 14.207 13 13.25 13H2.75C1.76562 13 1 12.2344 1 11.25V4.25Z" fill="#092F42"/>
</svg>
