<svg width="16" height="16" viewBox="0 0 16 16" fill="none" xmlns="http://www.w3.org/2000/svg">
<path d="M8.5 0.75C9.94922 0.75 11.125 1.92578 11.125 3.375V7.75C11.125 9.19922 9.94922 10.375 8.5 10.375C7.05078 10.375 5.875 9.19922 5.875 7.75V3.375C5.875 1.92578 7.05078 0.75 8.5 0.75ZM5 6.65625V7.75C5 9.69141 6.55859 11.25 8.5 11.25C10.4141 11.25 12 9.69141 12 7.75V6.65625C12 6.30078 12.2734 6 12.6562 6C13.0117 6 13.3125 6.30078 13.3125 6.65625V7.75C13.3125 10.2109 11.4805 12.207 9.15625 12.5352V13.4375H10.4688C10.8242 13.4375 11.125 13.7383 11.125 14.0938C11.125 14.4766 10.8242 14.75 10.4688 14.75H6.53125C6.14844 14.75 5.875 14.4766 5.875 14.0938C5.875 13.7383 6.14844 13.4375 6.53125 13.4375H7.84375V12.5352C5.49219 12.207 3.6875 10.2109 3.6875 7.75V6.65625C3.6875 6.30078 3.96094 6 4.34375 6C4.69922 6 5 6.30078 5 6.65625Z" fill="#092F42"/>
</svg>
