<svg width="16" height="16" viewBox="0 0 16 16" fill="none" xmlns="http://www.w3.org/2000/svg">
<path d="M9.125 3.375C9.125 2.66406 8.52344 2.0625 7.8125 2.0625C7.07422 2.0625 6.5 2.66406 6.5 3.375V7.75C6.5 8.48828 7.07422 9.0625 7.8125 9.0625C8.52344 9.0625 9.125 8.48828 9.125 7.75V3.375ZM5.1875 3.375C5.1875 1.92578 6.36328 0.75 7.8125 0.75C9.26172 0.75 10.4375 1.92578 10.4375 3.375V7.75C10.4375 9.19922 9.26172 10.375 7.8125 10.375C6.36328 10.375 5.1875 9.19922 5.1875 7.75V3.375ZM4.3125 6.65625V7.75C4.3125 9.69141 5.87109 11.25 7.8125 11.25C9.72656 11.25 11.3125 9.69141 11.3125 7.75V6.65625C11.3125 6.30078 11.5859 6 11.9688 6C12.3242 6 12.625 6.30078 12.625 6.65625V7.75C12.625 10.2109 10.793 12.207 8.46875 12.5352V13.4375H9.78125C10.1367 13.4375 10.4375 13.7383 10.4375 14.0938C10.4375 14.4766 10.1367 14.75 9.78125 14.75H5.84375C5.46094 14.75 5.1875 14.4766 5.1875 14.0938C5.1875 13.7383 5.46094 13.4375 5.84375 13.4375H7.15625V12.5352C4.80469 12.207 3 10.2109 3 7.75V6.65625C3 6.30078 3.27344 6 3.65625 6C4.01172 6 4.3125 6.30078 4.3125 6.65625Z" fill="#092F42"/>
</svg>
