<svg width="18" height="16" viewBox="0 0 18 16" fill="none" xmlns="http://www.w3.org/2000/svg">
<path d="M1.05733 1.16406L6.14326 5.12891V3.625C6.14326 2.17578 7.31904 1 8.76826 1C10.2175 1 11.3933 2.17578 11.3933 3.625V8C11.3933 8.38281 11.3112 8.73828 11.1745 9.06641L11.8581 9.61328C12.1042 9.14844 12.2683 8.60156 12.2683 8V6.90625C12.2683 6.55078 12.5417 6.25 12.9245 6.25C13.28 6.25 13.5808 6.55078 13.5808 6.90625V8C13.5808 8.90234 13.3347 9.72266 12.9245 10.4336L17.2448 13.8516C17.5456 14.0703 17.6003 14.4805 17.3542 14.7539C17.1355 15.0547 16.7253 15.1094 16.4519 14.8633L0.264357 2.17578C-0.0364242 1.95703 -0.0911117 1.54688 0.154982 1.27344C0.373732 0.972656 0.783888 0.917969 1.05733 1.16406ZM7.45576 6.14062L10.0534 8.19141C10.0534 8.13672 10.0808 8.08203 10.0808 8V3.625C10.0808 2.91406 9.4792 2.3125 8.76826 2.3125C8.02998 2.3125 7.45576 2.91406 7.45576 3.625V6.14062ZM9.80733 11.3633L10.9831 12.293C10.4909 12.5391 9.97139 12.7031 9.42451 12.7852V13.6875H10.737C11.0925 13.6875 11.3933 13.9883 11.3933 14.3438C11.3933 14.7266 11.0925 15 10.737 15H6.79951C6.4167 15 6.14326 14.7266 6.14326 14.3438C6.14326 13.9883 6.4167 13.6875 6.79951 13.6875H8.11201V12.7852C5.76045 12.457 3.95576 10.4609 3.95576 8V6.90625C3.95576 6.85156 3.95576 6.79688 3.95576 6.74219L5.26826 7.78125V8C5.26826 9.94141 6.82686 11.5 8.76826 11.5C9.12373 11.5 9.4792 11.4453 9.80733 11.3633Z" fill="#092F42"/>
</svg>
