<svg width="16" height="16" viewBox="0 0 16 16" fill="none" xmlns="http://www.w3.org/2000/svg">
<path d="M4.9375 1H11.0625C12.0195 1 12.8125 1.79297 12.8125 2.75V13.25C12.8125 14.2344 12.0195 15 11.0625 15H4.9375C3.95312 15 3.1875 14.2344 3.1875 13.25V2.75C3.1875 1.79297 3.95312 1 4.9375 1ZM7.125 12.8125C6.87891 12.8125 6.6875 13.0312 6.6875 13.25C6.6875 13.4961 6.87891 13.6875 7.125 13.6875H8.875C9.09375 13.6875 9.3125 13.4961 9.3125 13.25C9.3125 13.0312 9.09375 12.8125 8.875 12.8125H7.125Z" fill="#092F42"/>
</svg>
