<svg width="16" height="16" viewBox="0 0 16 16" fill="none" xmlns="http://www.w3.org/2000/svg">
<path d="M4.39062 1.625C5.375 1.625 6.33203 1.81641 7.04297 1.98047C7.39844 2.0625 7.67188 2.14453 7.89062 2.22656C7.91797 2.22656 7.94531 2.25391 8 2.25391C8.02734 2.25391 8.05469 2.22656 8.08203 2.22656C8.30078 2.14453 8.57422 2.0625 8.92969 1.98047C9.64062 1.81641 10.5977 1.625 11.6094 1.625C13.1133 1.625 14.5352 2.03516 15.1094 2.22656C15.5742 2.36328 15.875 2.80078 15.875 3.26562V11.7695C15.875 12.5078 15.1641 13 14.5352 12.8906C14.0156 12.7812 13.1133 12.6719 11.8281 12.6719C10.2148 12.6719 9.14844 13.3555 8.76562 13.6289C8.57422 13.7656 8.30078 13.875 7.97266 13.875C7.69922 13.875 7.45312 13.793 7.23438 13.6562C6.82422 13.3828 5.64844 12.6719 4.17188 12.6719C2.91406 12.6719 1.95703 12.8086 1.4375 12.8906C0.78125 13 0.125 12.5078 0.125 11.7969V3.26562C0.125 2.80078 0.398438 2.36328 0.863281 2.22656C1.4375 2.03516 2.85938 1.625 4.39062 1.625ZM7.34375 3.42969C7.17969 3.375 6.96094 3.32031 6.71484 3.26562C6.08594 3.10156 5.23828 2.9375 4.39062 2.9375C3.1875 2.9375 2.03906 3.23828 1.4375 3.42969V11.5781C2.03906 11.4688 2.99609 11.3594 4.17188 11.3594C5.48438 11.3594 6.63281 11.8242 7.34375 12.1797V3.42969ZM8.65625 12.1523C9.33984 11.7695 10.4062 11.3594 11.8281 11.3594C13.0586 11.3594 13.9609 11.4688 14.5625 11.5508V3.42969C13.9336 3.23828 12.7852 2.9375 11.6094 2.9375C10.7344 2.9375 9.88672 3.10156 9.25781 3.26562C9.01172 3.32031 8.82031 3.375 8.65625 3.42969V12.1523Z" fill="#092F42"/>
</svg>
