<svg width="16" height="16" viewBox="0 0 16 16" fill="none" xmlns="http://www.w3.org/2000/svg">
<path d="M9.13894 2.5625C9.13894 2.25781 9.37378 2 9.70254 2H13.4364C13.7652 2 14 2.25781 14 2.5625V6.3125C14 6.64063 13.7652 6.875 13.4364 6.875C13.1311 6.875 12.8728 6.64063 12.8728 6.3125V3.92188L7.63601 9.14844C7.42466 9.38281 7.07241 9.38281 6.86106 9.14844C6.62622 8.9375 6.62622 8.58594 6.86106 8.35156L12.0978 3.125H9.70254C9.37378 3.125 9.13894 2.89063 9.13894 2.5625ZM3.6908 2.75H6.69667C7.00196 2.75 7.26027 3.00781 7.26027 3.3125C7.26027 3.64063 7.00196 3.875 6.69667 3.875H3.6908C3.36204 3.875 3.1272 4.13281 3.1272 4.4375V12.3125C3.1272 12.6406 3.36204 12.875 3.6908 12.875H11.5812C11.8865 12.875 12.1448 12.6406 12.1448 12.3125V9.3125C12.1448 9.00781 12.3796 8.75 12.7084 8.75C13.0137 8.75 13.272 9.00781 13.272 9.3125V12.3125C13.272 13.25 12.4971 14 11.5812 14H3.6908C2.75147 14 2 13.25 2 12.3125V4.4375C2 3.52344 2.75147 2.75 3.6908 2.75Z" fill="#092F42"/>
</svg>
