<svg width="16" height="16" viewBox="0 0 16 16" fill="none" xmlns="http://www.w3.org/2000/svg">
<path d="M8 14.5C5.84375 14.5 3.875 13.375 2.79688 11.5C1.71875 9.64844 1.71875 7.375 2.79688 5.5C3.875 3.64844 5.84375 2.5 8 2.5C10.1328 2.5 12.1016 3.64844 13.1797 5.5C14.2578 7.375 14.2578 9.64844 13.1797 11.5C12.1016 13.375 10.1328 14.5 8 14.5ZM10.3906 6.78906C10.4609 6.60156 10.4375 6.36719 10.2734 6.22656C10.1328 6.08594 9.89844 6.03906 9.71094 6.10938L5.11719 8.07812C4.88281 8.17188 4.76562 8.42969 4.8125 8.66406C4.85938 8.89844 5.07031 9.0625 5.32812 9.0625H7.4375V11.1719C7.4375 11.4297 7.60156 11.6406 7.83594 11.6875C7.88281 11.6875 7.90625 11.6875 7.95312 11.6875C8.14062 11.6875 8.32812 11.5703 8.42188 11.3828L10.3906 6.78906Z" fill="#092F42"/>
</svg>
