<svg width="16" height="16" viewBox="0 0 16 16" fill="none" xmlns="http://www.w3.org/2000/svg">
<path d="M1.4375 3.8125V5.125H2.3125V6.4375H1.4375C0.699219 6.4375 0.125 5.86328 0.125 5.125V3.8125C0.125 2.60938 1.08203 1.625 2.3125 1.625H11.0625C12.2656 1.625 13.25 2.60938 13.25 3.8125V8.1875H11.9375V3.8125C11.9375 3.34766 11.5273 2.9375 11.0625 2.9375H4.30859C4.41797 3.21094 4.5 3.51172 4.5 3.8125V11.6875C4.5 12.1797 4.88281 12.5625 5.375 12.5625C5.83984 12.5625 6.25 12.1797 6.25 11.6875V10.375C6.25 9.66406 6.82422 9.0625 7.5625 9.0625H14.5625C15.2734 9.0625 15.875 9.66406 15.875 10.375V11.6875C15.875 12.918 14.8906 13.875 13.6875 13.875H5.375C4.14453 13.875 3.1875 12.918 3.1875 11.6875V3.8125C3.1875 3.34766 2.77734 2.9375 2.3125 2.9375C1.82031 2.9375 1.4375 3.34766 1.4375 3.8125ZM13.7969 12.5625C14.2617 12.5625 14.6719 12.1797 14.6719 11.6875V10.375H7.5625V11.6875C7.5625 12.0156 7.48047 12.3164 7.37109 12.5625H13.7969Z" fill="#092F42"/>
</svg>
