<svg width="16" height="16" viewBox="0 0 16 16" fill="none" xmlns="http://www.w3.org/2000/svg">
<path d="M13.6875 7.75C13.6875 5.72656 12.5938 3.86719 10.8438 2.82812C9.06641 1.81641 6.90625 1.81641 5.15625 2.82812C3.37891 3.86719 2.3125 5.72656 2.3125 7.75C2.3125 9.80078 3.37891 11.6602 5.15625 12.6992C6.90625 13.7109 9.06641 13.7109 10.8438 12.6992C12.5938 11.6602 13.6875 9.80078 13.6875 7.75ZM1 7.75C1 5.26172 2.3125 2.96484 4.5 1.70703C6.66016 0.449219 9.3125 0.449219 11.5 1.70703C13.6602 2.96484 15 5.26172 15 7.75C15 10.2656 13.6602 12.5625 11.5 13.8203C9.3125 15.0781 6.66016 15.0781 4.5 13.8203C2.3125 12.5625 1 10.2656 1 7.75ZM7.125 5.78125V9.71875C7.125 10.1016 6.82422 10.375 6.46875 10.375C6.08594 10.375 5.8125 10.1016 5.8125 9.71875V5.78125C5.8125 5.42578 6.08594 5.125 6.46875 5.125C6.82422 5.125 7.125 5.42578 7.125 5.78125ZM10.1875 5.78125V9.71875C10.1875 10.1016 9.88672 10.375 9.53125 10.375C9.14844 10.375 8.875 10.1016 8.875 9.71875V5.78125C8.875 5.42578 9.14844 5.125 9.53125 5.125C9.88672 5.125 10.1875 5.42578 10.1875 5.78125Z" fill="#092F42"/>
</svg>
