<svg width="16" height="16" viewBox="0 0 16 16" fill="none" xmlns="http://www.w3.org/2000/svg">
<path d="M1.98418 10.6211C2.09355 10.2383 2.3123 9.88281 2.58574 9.60938L10.8982 1.29688C11.5818 0.613281 12.7029 0.613281 13.3865 1.29688L14.4529 2.36328C14.535 2.44531 14.617 2.55469 14.6717 2.63672C15.1365 3.32031 15.0545 4.25 14.4529 4.85156L6.14043 13.1641C6.11309 13.1914 6.0584 13.2188 6.03105 13.2734C5.75762 13.4922 5.45684 13.6562 5.12871 13.7656L2.9959 14.3945L1.82012 14.75C1.60137 14.8047 1.35527 14.75 1.19121 14.5586C0.999805 14.3945 0.945117 14.1484 1.02715 13.9297L1.35527 12.7539L1.98418 10.6211ZM3.24199 11.0039L3.05059 11.6328L2.61309 13.1367L4.11699 12.6992L4.7459 12.5078C4.9373 12.4531 5.07402 12.3711 5.21074 12.2344L11.4725 5.97266L9.77715 4.27734L3.51543 10.5391C3.48809 10.5391 3.48809 10.5664 3.46074 10.5938C3.35137 10.7031 3.29668 10.8398 3.24199 11.0039Z" fill="#092F42"/>
</svg>
