<svg width="16" height="16" viewBox="0 0 16 16" fill="none" xmlns="http://www.w3.org/2000/svg">
<path d="M3.875 4.375V6.625H6.125V4.375H3.875ZM2.75 4.375C2.75 3.76562 3.24219 3.25 3.875 3.25H6.125C6.73438 3.25 7.25 3.76562 7.25 4.375V6.625C7.25 7.25781 6.73438 7.75 6.125 7.75H3.875C3.24219 7.75 2.75 7.25781 2.75 6.625V4.375ZM3.875 10.375V12.625H6.125V10.375H3.875ZM2.75 10.375C2.75 9.76562 3.24219 9.25 3.875 9.25H6.125C6.73438 9.25 7.25 9.76562 7.25 10.375V12.625C7.25 13.2578 6.73438 13.75 6.125 13.75H3.875C3.24219 13.75 2.75 13.2578 2.75 12.625V10.375ZM12.125 4.375H9.875V6.625H12.125V4.375ZM9.875 3.25H12.125C12.7344 3.25 13.25 3.76562 13.25 4.375V6.625C13.25 7.25781 12.7344 7.75 12.125 7.75H9.875C9.24219 7.75 8.75 7.25781 8.75 6.625V4.375C8.75 3.76562 9.24219 3.25 9.875 3.25ZM9.875 10.375V12.625H12.125V10.375H9.875ZM8.75 10.375C8.75 9.76562 9.24219 9.25 9.875 9.25H12.125C12.7344 9.25 13.25 9.76562 13.25 10.375V12.625C13.25 13.2578 12.7344 13.75 12.125 13.75H9.875C9.24219 13.75 8.75 13.2578 8.75 12.625V10.375Z" fill="#092F42"/>
</svg>
