<svg width="16" height="16" viewBox="0 0 16 16" fill="none" xmlns="http://www.w3.org/2000/svg">
<path d="M8 2.0625C5.94922 2.0625 4.08984 3.15625 3.05078 4.90625C2.03906 6.68359 2.03906 8.84375 3.05078 10.5938C4.08984 12.3711 5.94922 13.4375 8 13.4375C10.0234 13.4375 11.8828 12.3711 12.9219 10.5938C13.9336 8.84375 13.9336 6.68359 12.9219 4.90625C11.8828 3.15625 10.0234 2.0625 8 2.0625ZM8 14.75C5.48438 14.75 3.1875 13.4375 1.92969 11.25C0.671875 9.08984 0.671875 6.4375 1.92969 4.25C3.1875 2.08984 5.48438 0.75 8 0.75C10.4883 0.75 12.7852 2.08984 14.043 4.25C15.3008 6.4375 15.3008 9.08984 14.043 11.25C12.7852 13.4375 10.4883 14.75 8 14.75ZM9.53125 10.375C9.53125 11.2227 8.82031 11.9062 8 11.9062C7.15234 11.9062 6.46875 11.2227 6.46875 10.375C6.46875 9.77344 6.82422 9.25391 7.34375 9.00781V4.03125C7.34375 3.67578 7.61719 3.375 8 3.375C8.35547 3.375 8.65625 3.67578 8.65625 4.03125V9.00781C9.14844 9.25391 9.53125 9.77344 9.53125 10.375Z" fill="#092F42"/>
</svg>
