<svg width="16" height="16" viewBox="0 0 16 16" fill="none" xmlns="http://www.w3.org/2000/svg">
<path d="M13.6875 7.75C13.6875 5.72656 12.5938 3.86719 10.8438 2.82812C9.06641 1.81641 6.90625 1.81641 5.15625 2.82812C3.37891 3.86719 2.3125 5.72656 2.3125 7.75C2.3125 9.80078 3.37891 11.6602 5.15625 12.6992C6.90625 13.7109 9.06641 13.7109 10.8438 12.6992C12.5938 11.6602 13.6875 9.80078 13.6875 7.75ZM1 7.75C1 5.26172 2.3125 2.96484 4.5 1.70703C6.66016 0.449219 9.3125 0.449219 11.5 1.70703C13.6602 2.96484 15 5.26172 15 7.75C15 10.2656 13.6602 12.5625 11.5 13.8203C9.3125 15.0781 6.66016 15.0781 4.5 13.8203C2.3125 12.5625 1 10.2656 1 7.75ZM6.14062 4.79688C6.33203 4.66016 6.60547 4.66016 6.79688 4.79688L10.7344 7.20312C10.9258 7.3125 11.0625 7.53125 11.0625 7.77734C11.0625 7.99609 10.9258 8.21484 10.7344 8.32422L6.79688 10.7305C6.60547 10.8672 6.33203 10.8672 6.14062 10.7578C5.92188 10.6211 5.8125 10.4023 5.8125 10.1836V5.34375C5.8125 5.125 5.92188 4.90625 6.14062 4.79688Z" fill="#092F42"/>
</svg>
