<svg width="16" height="16" viewBox="0 0 16 16" fill="none" xmlns="http://www.w3.org/2000/svg">
<path d="M4.0625 5.125H2.75V2.5C2.75 1.54297 3.51562 0.75 4.5 0.75H10.7617C11.2266 0.75 11.6641 0.941406 11.9922 1.26953L12.7305 2.00781C13.0586 2.33594 13.25 2.77344 13.25 3.23828V5.125H11.9375V3.23828C11.9375 3.12891 11.8828 3.01953 11.8008 2.9375L11.0625 2.19922C10.9805 2.11719 10.8711 2.0625 10.7617 2.0625H4.5C4.25391 2.0625 4.0625 2.28125 4.0625 2.5V5.125ZM4.5 10.8125V13.4375H11.5V10.8125H4.5ZM4.0625 9.5H11.9375C12.4023 9.5 12.8125 9.91016 12.8125 10.375H13.6875V7.75C13.6875 7.53125 13.4688 7.3125 13.25 7.3125H2.75C2.50391 7.3125 2.3125 7.53125 2.3125 7.75V10.375H3.1875C3.1875 9.91016 3.57031 9.5 4.0625 9.5ZM12.8125 11.6875V13.875C12.8125 14.3672 12.4023 14.75 11.9375 14.75H4.0625C3.57031 14.75 3.1875 14.3672 3.1875 13.875V11.6875H1.875C1.38281 11.6875 1 11.3047 1 10.8125V7.75C1 6.79297 1.76562 6 2.75 6H13.25C14.207 6 15 6.79297 15 7.75V10.8125C15 11.3047 14.5898 11.6875 14.125 11.6875H12.8125Z" fill="#092F42"/>
</svg>
