<svg width="16" height="16" viewBox="0 0 16 16" fill="none" xmlns="http://www.w3.org/2000/svg">
<path d="M13.5 3C13.5 2.75 13.25 2.5 13 2.5H3C2.71875 2.5 2.5 2.75 2.5 3V13C2.5 13.2813 2.71875 13.5 3 13.5H13C13.25 13.5 13.5 13.2813 13.5 13V3ZM13 1C14.0938 1 15 1.90625 15 3V13C15 14.125 14.0938 15 13 15H3C1.875 15 1 14.125 1 13V3C1 1.90625 1.875 1 3 1H13ZM9 5C9 5.4375 8.65625 5.75 8.25 5.75H4.75C4.3125 5.75 4 5.4375 4 5C4 4.59375 4.3125 4.25 4.75 4.25H8.25C8.65625 4.25 9 4.59375 9 5ZM11.25 7.25C11.6563 7.25 12 7.59375 12 8C12 8.4375 11.6563 8.75 11.25 8.75H4.75C4.3125 8.75 4 8.4375 4 8C4 7.59375 4.3125 7.25 4.75 7.25H11.25ZM7 11C7 11.4375 6.65625 11.75 6.25 11.75H4.75C4.3125 11.75 4 11.4375 4 11C4 10.5938 4.3125 10.25 4.75 10.25H6.25C6.65625 10.25 7 10.5938 7 11Z" fill="#092F42"/>
</svg>
