<svg width="16" height="16" viewBox="0 0 16 16" fill="none" xmlns="http://www.w3.org/2000/svg">
<path d="M8.875 2.0625H1.875C1.62891 2.0625 1.4375 2.28125 1.4375 2.5V13C1.4375 13.2461 1.62891 13.4375 1.875 13.4375H7.89062C8.21875 13.957 8.62891 14.3945 9.12109 14.75C9.03906 14.75 8.95703 14.75 8.875 14.75H1.875C0.890625 14.75 0.125 13.9844 0.125 13V2.5C0.125 1.54297 0.890625 0.75 1.875 0.75H8.875C9.83203 0.75 10.625 1.54297 10.625 2.5V6.19141C10.1328 6.32812 9.69531 6.51953 9.3125 6.79297V2.5C9.3125 2.28125 9.09375 2.0625 8.875 2.0625ZM2.75 4.90625C2.75 4.55078 3.02344 4.25 3.40625 4.25H7.34375C7.69922 4.25 8 4.55078 8 4.90625C8 5.28906 7.69922 5.5625 7.34375 5.5625H3.40625C3.02344 5.5625 2.75 5.28906 2.75 4.90625ZM3.40625 6.875H7.34375C7.69922 6.875 8 7.17578 8 7.53125C8 7.91406 7.69922 8.1875 7.34375 8.1875H3.40625C3.02344 8.1875 2.75 7.91406 2.75 7.53125C2.75 7.17578 3.02344 6.875 3.40625 6.875ZM3.40625 9.5H4.71875C5.07422 9.5 5.375 9.80078 5.375 10.1562C5.375 10.5391 5.07422 10.8125 4.71875 10.8125H3.40625C3.02344 10.8125 2.75 10.5391 2.75 10.1562C2.75 9.80078 3.02344 9.5 3.40625 9.5ZM11.9375 6.875C13.332 6.875 14.6172 7.64062 15.3281 8.84375C16.0391 10.0742 16.0391 11.5781 15.3281 12.7812C14.6172 14.0117 13.332 14.75 11.9375 14.75C10.5156 14.75 9.23047 14.0117 8.51953 12.7812C7.80859 11.5781 7.80859 10.0742 8.51953 8.84375C9.23047 7.64062 10.5156 6.875 11.9375 6.875ZM11.9375 9.5C12.293 9.5 12.5938 9.22656 12.5938 8.84375C12.5938 8.48828 12.293 8.1875 11.9375 8.1875C11.5547 8.1875 11.2812 8.48828 11.2812 8.84375C11.2812 9.22656 11.5547 9.5 11.9375 9.5ZM11.0625 10.8125C11.0625 11.0586 11.2539 11.25 11.5 11.25V12.5625C11.2539 12.5625 11.0625 12.7812 11.0625 13C11.0625 13.2461 11.2539 13.4375 11.5 13.4375H12.375C12.5938 13.4375 12.8125 13.2461 12.8125 13C12.8125 12.7812 12.5938 12.5625 12.375 12.5625V10.8125C12.375 10.5938 12.1562 10.375 11.9375 10.375H11.5C11.2539 10.375 11.0625 10.5938 11.0625 10.8125Z" fill="#092F42"/>
</svg>
