<svg width="16" height="16" viewBox="0 0 16 16" fill="none" xmlns="http://www.w3.org/2000/svg">
<path d="M8.76558 1.24219L10.5429 4.87891L14.4531 5.45312C14.7812 5.50781 15.0546 5.72656 15.164 6.05469C15.2734 6.35547 15.1914 6.71094 14.9453 6.92969L12.1015 9.74609L12.7851 13.7383C12.8398 14.0664 12.7031 14.3945 12.4296 14.5859C12.1562 14.8047 11.8007 14.8047 11.5 14.668L7.99995 12.7812L4.47261 14.668C4.19917 14.8047 3.8437 14.8047 3.57027 14.5859C3.29683 14.3945 3.16011 14.0664 3.2148 13.7383L3.87105 9.74609L1.0273 6.92969C0.808547 6.71094 0.726515 6.35547 0.808547 6.05469C0.917922 5.72656 1.19136 5.50781 1.51948 5.45312L5.45698 4.87891L7.20698 1.24219C7.3437 0.941406 7.64448 0.75 7.99995 0.75C8.32808 0.75 8.62886 0.941406 8.76558 1.24219Z" fill="#092F42"/>
</svg>
