<svg width="16" height="16" viewBox="0 0 16 16" fill="none" xmlns="http://www.w3.org/2000/svg">
<path d="M7.97246 0.75C8.2459 0.75 8.46465 0.914062 8.57402 1.13281L10.4607 4.98828L14.6443 5.61719C14.8904 5.64453 15.0818 5.80859 15.1639 6.05469C15.2459 6.30078 15.1912 6.54688 14.9998 6.73828L11.9646 9.74609L12.6756 13.9844C12.7303 14.2305 12.6209 14.5039 12.4295 14.6406C12.2107 14.7773 11.9373 14.8047 11.7186 14.6953L7.97246 12.6719L4.25371 14.6953C4.00762 14.8047 3.76152 14.7773 3.54277 14.6406C3.35137 14.4766 3.24199 14.2305 3.29668 13.9844L4.00762 9.74609L0.972461 6.73828C0.781055 6.54688 0.726367 6.30078 0.808398 6.05469C0.89043 5.83594 1.08184 5.64453 1.32793 5.61719L5.51152 4.98828L7.39824 1.13281C7.50762 0.914062 7.72637 0.75 7.97246 0.75ZM7.97246 2.91016L6.55059 5.89062C6.44121 6.08203 6.27715 6.21875 6.0584 6.24609L2.83184 6.71094L5.15605 9.03516C5.32012 9.19922 5.40215 9.41797 5.34746 9.60938L4.80059 12.8906L7.67168 11.3594C7.86309 11.25 8.10918 11.25 8.30059 11.3594L11.1717 12.8906L10.6248 9.63672C10.5701 9.41797 10.6521 9.19922 10.8162 9.0625L13.1404 6.71094L9.91387 6.24609C9.69512 6.21875 9.53105 6.08203 9.42168 5.89062L7.97246 2.91016Z" fill="#092F42"/>
</svg>
