<svg width="16" height="16" viewBox="0 0 16 16" fill="none" xmlns="http://www.w3.org/2000/svg">
<path d="M11.1445 4.11328C10.2969 3.40234 9.20312 2.9375 8 2.9375C5.32031 2.9375 3.1875 5.09766 3.1875 7.75C3.1875 10.4297 5.32031 12.5625 8 12.5625C9.06641 12.5625 10.0781 12.207 10.8711 11.6055C11.1719 11.3867 11.582 11.4414 11.8008 11.7422C12.0195 12.043 11.9648 12.4531 11.6641 12.6719C10.6523 13.4375 9.36719 13.875 8 13.875C4.60938 13.875 1.875 11.1406 1.875 7.75C1.875 4.38672 4.60938 1.625 8 1.625C9.55859 1.625 10.9805 2.22656 12.0742 3.18359L12.8945 2.36328C13.0859 2.17188 13.332 2.08984 13.5781 2.08984C14.125 2.0625 14.5625 2.5 14.5625 3.04688V6.21875C14.5625 6.60156 14.2617 6.875 13.9062 6.875H10.707C10.1602 6.875 9.75 6.46484 9.75 5.91797C9.75 5.67188 9.83203 5.42578 10.0234 5.23438L11.1445 4.11328ZM13.25 3.86719L11.5273 5.5625H13.25V3.86719Z" fill="#092F42"/>
</svg>
