<svg width="16" height="16" viewBox="0 0 16 16" fill="none" xmlns="http://www.w3.org/2000/svg">
<path d="M8.0002 0.75C8.46504 0.75 8.8752 1.16016 8.8752 1.625V2.17188C10.8713 2.55469 12.3752 4.33203 12.3752 6.4375V7.14844C12.3752 8.37891 12.7854 9.58203 13.551 10.5664L13.9611 11.0586C14.1252 11.2773 14.1525 11.5508 14.0432 11.7695C13.9338 11.9883 13.715 12.125 13.4689 12.125H2.53145C2.25801 12.125 2.03926 11.9883 1.92988 11.7695C1.82051 11.5508 1.84785 11.2773 2.01191 11.0586L2.42207 10.5664C3.1877 9.58203 3.6252 8.37891 3.6252 7.14844V6.4375C3.6252 4.33203 5.1291 2.55469 7.1252 2.17188V1.625C7.1252 1.16016 7.50801 0.75 8.0002 0.75ZM8.0002 3.375C6.30488 3.375 4.9377 4.76953 4.9377 6.4375V7.14844C4.9377 8.46094 4.55488 9.71875 3.84395 10.8125H12.1291C11.4182 9.71875 11.0627 8.46094 11.0627 7.14844V6.4375C11.0627 4.76953 9.66816 3.375 8.0002 3.375ZM9.7502 13C9.7502 13.4648 9.55879 13.9297 9.23066 14.2578C8.90254 14.5859 8.46504 14.75 8.0002 14.75C7.53535 14.75 7.07051 14.5859 6.74238 14.2578C6.41426 13.9297 6.2502 13.4648 6.2502 13H9.7502Z" fill="#092F42"/>
</svg>
