<svg width="16" height="16" viewBox="0 0 16 16" fill="none" xmlns="http://www.w3.org/2000/svg">
<path d="M3.6875 1.40625V2.17188L6.01172 1.59766C7.05078 1.35156 8.14453 1.46094 9.10156 1.95312C10.3594 2.58203 11.8633 2.58203 13.1211 1.95312L13.3945 1.81641C13.9414 1.54297 14.625 1.95312 14.625 2.58203V10.2109C14.625 10.5938 14.3789 10.8945 14.0508 11.0312L13.0938 11.3867C11.8359 11.8789 10.4414 11.7969 9.21094 11.1953C8.17188 10.6758 6.99609 10.5391 5.875 10.8125L3.6875 11.3594V14.0938C3.6875 14.4766 3.38672 14.75 3.03125 14.75C2.64844 14.75 2.375 14.4766 2.375 14.0938V1.40625C2.375 1.05078 2.64844 0.75 3.03125 0.75C3.38672 0.75 3.6875 1.05078 3.6875 1.40625ZM3.6875 3.53906V10.0195L5.54688 9.55469C6.96875 9.19922 8.5 9.36328 9.8125 10.0195C10.6875 10.457 11.6992 10.5117 12.6289 10.1562L13.3125 9.91016V3.29297C11.7539 3.92188 10.0039 3.86719 8.52734 3.12891C7.84375 2.77344 7.05078 2.69141 6.3125 2.88281L3.6875 3.53906Z" fill="#092F42"/>
</svg>
