<svg width="16" height="16" viewBox="0 0 16 16" fill="none" xmlns="http://www.w3.org/2000/svg">
<path d="M7.97266 1.25C8.0159 1.25005 8.05973 1.26842 8.09473 1.30859L8.12695 1.35645L10.0117 5.20801C10.0839 5.35558 10.2243 5.458 10.3867 5.48242L14.5703 6.11133C14.5765 6.11226 14.5826 6.11356 14.5889 6.11426C14.6143 6.11708 14.6304 6.12541 14.6426 6.13574C14.6557 6.14686 14.675 6.16946 14.6895 6.21289C14.7036 6.25527 14.7017 6.28404 14.6973 6.30273C14.6929 6.32095 14.6814 6.34836 14.6475 6.38281L11.6123 9.39062C11.4969 9.50498 11.4448 9.6689 11.4717 9.8291L12.1826 14.0674C12.184 14.0759 12.1856 14.0844 12.1875 14.0928C12.1913 14.1098 12.1911 14.1398 12.1777 14.1748C12.1682 14.1998 12.1551 14.2154 12.1465 14.2246C12.0582 14.273 11.9784 14.2665 11.9414 14.248L8.20996 12.2324C8.0612 12.1521 7.88191 12.1516 7.7334 12.2324L4.04004 14.2412C3.97135 14.2693 3.91232 14.2679 3.84277 14.2334C3.78466 14.1711 3.77987 14.1166 3.78516 14.0928C3.78702 14.0844 3.78861 14.0759 3.79004 14.0674L4.50098 9.8291C4.52785 9.66888 4.47477 9.50498 4.35938 9.39062L1.32422 6.38281C1.29039 6.34841 1.27872 6.3209 1.27441 6.30273C1.27028 6.28518 1.26974 6.25895 1.28125 6.2207C1.29539 6.18757 1.31578 6.15824 1.33789 6.13867C1.36025 6.11889 1.37581 6.1151 1.38281 6.11426C1.3892 6.11355 1.39599 6.11228 1.40234 6.11133L5.58594 5.48242C5.74835 5.45796 5.88874 5.35554 5.96094 5.20801L7.8457 1.35645C7.86405 1.31979 7.89079 1.28925 7.91797 1.27051C7.94391 1.25268 7.96299 1.25 7.97266 1.25Z" fill="#FFAB3D" stroke="#F78B08" stroke-linejoin="round"/>
</svg>
