<svg width="16" height="16" viewBox="0 0 16 16" fill="none" xmlns="http://www.w3.org/2000/svg">
<path d="M5.5 1C5.85547 1 6.15625 1.30078 6.15625 1.65625V2.75H10.0938V1.65625C10.0938 1.30078 10.3672 1 10.75 1C11.1055 1 11.4062 1.30078 11.4062 1.65625V2.75H12.5C13.457 2.75 14.25 3.54297 14.25 4.5V13.25C14.25 14.2344 13.457 15 12.5 15H3.75C2.76562 15 2 14.2344 2 13.25V4.5C2 3.54297 2.76562 2.75 3.75 2.75H4.84375V1.65625C4.84375 1.30078 5.11719 1 5.5 1ZM12.9375 6.25H3.3125V13.25C3.3125 13.4961 3.50391 13.6875 3.75 13.6875H12.5C12.7188 13.6875 12.9375 13.4961 12.9375 13.25V6.25ZM5.0625 8H7.6875C7.90625 8 8.125 8.21875 8.125 8.4375V11.0625C8.125 11.3086 7.90625 11.5 7.6875 11.5H5.0625C4.81641 11.5 4.625 11.3086 4.625 11.0625V8.4375C4.625 8.21875 4.81641 8 5.0625 8Z" fill="#092F42"/>
</svg>
