<svg width="16" height="16" viewBox="0 0 16 16" fill="none" xmlns="http://www.w3.org/2000/svg">
<path d="M11.0625 6.4375C11.0625 4.87891 10.2148 3.45703 8.875 2.66406C7.50781 1.87109 5.83984 1.87109 4.5 2.66406C3.13281 3.45703 2.3125 4.87891 2.3125 6.4375C2.3125 8.02344 3.13281 9.44531 4.5 10.2383C5.83984 11.0312 7.50781 11.0312 8.875 10.2383C10.2148 9.44531 11.0625 8.02344 11.0625 6.4375ZM10.2148 10.9219C9.23047 11.6875 8 12.125 6.6875 12.125C3.54297 12.125 1 9.58203 1 6.4375C1 3.32031 3.54297 0.75 6.6875 0.75C9.80469 0.75 12.375 3.32031 12.375 6.4375C12.375 7.77734 11.9102 9.00781 11.1445 9.99219L14.8086 13.6289C15.0547 13.9023 15.0547 14.3125 14.8086 14.5586C14.5352 14.832 14.125 14.832 13.8789 14.5586L10.2148 10.9219Z" fill="#092F42"/>
</svg>
