<svg width="16" height="16" viewBox="0 0 16 16" fill="none" xmlns="http://www.w3.org/2000/svg">
<path d="M13.6523 7.75C13.6523 5.72656 12.5586 3.86719 10.8086 2.82812C9.03125 1.81641 6.87109 1.81641 5.12109 2.82812C3.34375 3.86719 2.27734 5.72656 2.27734 7.75C2.27734 9.80078 3.34375 11.6602 5.12109 12.6992C6.87109 13.7109 9.03125 13.7109 10.8086 12.6992C12.5586 11.6602 13.6523 9.80078 13.6523 7.75ZM0.964844 7.75C0.964844 5.26172 2.27734 2.96484 4.46484 1.70703C6.625 0.449219 9.27734 0.449219 11.4648 1.70703C13.625 2.96484 14.9648 5.26172 14.9648 7.75C14.9648 10.2656 13.625 12.5625 11.4648 13.8203C9.27734 15.0781 6.625 15.0781 4.46484 13.8203C2.27734 12.5625 0.964844 10.2656 0.964844 7.75ZM10.5078 9.19922C11.0273 9.0625 11.4922 9.52734 11.2188 9.96484C10.5352 11.0039 9.33203 11.6875 7.9375 11.6875C6.57031 11.6875 5.36719 11.0039 4.68359 9.96484C4.41016 9.52734 4.875 9.0625 5.39453 9.19922C6.1875 9.39062 7.03516 9.47266 7.9375 9.47266C8.86719 9.47266 9.71484 9.39062 10.5078 9.19922ZM4.90234 6.4375C4.90234 5.97266 5.28516 5.5625 5.77734 5.5625C6.26953 5.5625 6.65234 5.97266 6.65234 6.4375C6.65234 6.92969 6.26953 7.3125 5.77734 7.3125C5.28516 7.3125 4.90234 6.92969 4.90234 6.4375ZM10.1523 5.5625C10.6445 5.5625 11.0273 5.97266 11.0273 6.4375C11.0273 6.92969 10.6445 7.3125 10.1523 7.3125C9.66016 7.3125 9.27734 6.92969 9.27734 6.4375C9.27734 5.97266 9.66016 5.5625 10.1523 5.5625Z" fill="#092F42"/>
</svg>
