<svg width="16" height="16" viewBox="0 0 16 16" fill="none" xmlns="http://www.w3.org/2000/svg">
<path d="M13.6523 7.75C13.6523 5.72656 12.5586 3.86719 10.8086 2.82812C9.03125 1.81641 6.87109 1.81641 5.12109 2.82812C3.34375 3.86719 2.27734 5.72656 2.27734 7.75C2.27734 9.80078 3.34375 11.6602 5.12109 12.6992C6.87109 13.7109 9.03125 13.7109 10.8086 12.6992C12.5586 11.6602 13.6523 9.80078 13.6523 7.75ZM7.96484 0.75C10.4531 0.75 12.75 2.08984 14.0078 4.25C15.2656 6.4375 15.2656 9.08984 14.0078 11.25C12.75 13.4375 10.4531 14.75 7.96484 14.75C5.44922 14.75 3.15234 13.4375 1.89453 11.25C0.636719 9.08984 0.636719 6.4375 1.89453 4.25C3.15234 2.08984 5.44922 0.75 7.96484 0.75ZM5.77734 7.3125C5.28516 7.3125 4.90234 6.92969 4.90234 6.4375C4.90234 5.97266 5.28516 5.5625 5.77734 5.5625C6.26953 5.5625 6.65234 5.97266 6.65234 6.4375C6.65234 6.92969 6.26953 7.3125 5.77734 7.3125ZM11.0273 6.4375C11.0273 6.92969 10.6445 7.3125 10.1523 7.3125C9.66016 7.3125 9.27734 6.92969 9.27734 6.4375C9.27734 5.97266 9.66016 5.5625 10.1523 5.5625C10.6445 5.5625 11.0273 5.97266 11.0273 6.4375ZM5.99609 9.71875H9.93359C10.2891 9.71875 10.5898 10.0195 10.5898 10.375C10.5898 10.7578 10.2891 11.0312 9.93359 11.0312H5.99609C5.61328 11.0312 5.33984 10.7578 5.33984 10.375C5.33984 10.0195 5.61328 9.71875 5.99609 9.71875Z" fill="#092F42"/>
</svg>
