<svg width="16" height="16" viewBox="0 0 16 16" fill="none" xmlns="http://www.w3.org/2000/svg">
<path d="M13.6523 7.75C13.6523 5.72656 12.5586 3.86719 10.8086 2.82812C9.03125 1.81641 6.87109 1.81641 5.12109 2.82812C3.34375 3.86719 2.27734 5.72656 2.27734 7.75C2.27734 9.80078 3.34375 11.6602 5.12109 12.6992C6.87109 13.7109 9.03125 13.7109 10.8086 12.6992C12.5586 11.6602 13.6523 9.80078 13.6523 7.75ZM0.964844 7.75C0.964844 5.26172 2.27734 2.96484 4.46484 1.70703C6.625 0.449219 9.27734 0.449219 11.4648 1.70703C13.625 2.96484 14.9648 5.26172 14.9648 7.75C14.9648 10.2656 13.625 12.5625 11.4648 13.8203C9.27734 15.0781 6.625 15.0781 4.46484 13.8203C2.27734 12.5625 0.964844 10.2656 0.964844 7.75ZM5.80469 9.47266C6.21484 9.91016 6.92578 10.375 7.96484 10.375C8.97656 10.375 9.6875 9.91016 10.0977 9.47266C10.3438 9.19922 10.7539 9.17188 11.0273 9.41797C11.3008 9.66406 11.3008 10.0742 11.0547 10.3477C10.4531 11.0039 9.41406 11.6875 7.96484 11.6875C6.48828 11.6875 5.44922 11.0039 4.84766 10.3477C4.60156 10.0742 4.62891 9.66406 4.875 9.41797C5.14844 9.17188 5.55859 9.19922 5.80469 9.47266ZM4.90234 6.4375C4.90234 5.97266 5.28516 5.5625 5.77734 5.5625C6.26953 5.5625 6.65234 5.97266 6.65234 6.4375C6.65234 6.92969 6.26953 7.3125 5.77734 7.3125C5.28516 7.3125 4.90234 6.92969 4.90234 6.4375ZM10.1523 5.5625C10.6445 5.5625 11.0273 5.97266 11.0273 6.4375C11.0273 6.92969 10.6445 7.3125 10.1523 7.3125C9.66016 7.3125 9.27734 6.92969 9.27734 6.4375C9.27734 5.97266 9.66016 5.5625 10.1523 5.5625Z" fill="#092F42"/>
</svg>
