<svg width="16" height="16" viewBox="0 0 16 16" fill="none" xmlns="http://www.w3.org/2000/svg">
<path d="M8 0.75C8.46484 0.75 8.90234 0.804688 9.33984 0.886719C9.55859 0.941406 9.94141 1.05078 10.1602 1.43359C10.2148 1.54297 10.2422 1.65234 10.2695 1.76172L10.543 2.82812C10.5703 2.96484 10.8438 3.12891 11.0078 3.07422L12.0469 2.77344C12.1562 2.74609 12.2656 2.71875 12.375 2.71875C12.8125 2.71875 13.1133 2.99219 13.25 3.15625C13.8516 3.83984 14.3164 4.63281 14.6172 5.50781C14.6992 5.72656 14.7812 6.10938 14.5352 6.46484C14.4805 6.57422 14.3984 6.65625 14.3164 6.73828L13.5508 7.50391C13.4141 7.61328 13.4141 7.91406 13.5508 8.02344L14.3164 8.78906C14.3984 8.87109 14.4805 8.95312 14.5352 9.0625C14.7539 9.41797 14.6719 9.80078 14.6172 10.0195C14.3164 10.8945 13.8516 11.6875 13.25 12.3711C13.1133 12.5352 12.8125 12.8086 12.375 12.8086C12.2656 12.8086 12.1562 12.7812 12.0469 12.7539L11.0078 12.4258C10.8438 12.3984 10.5703 12.5352 10.543 12.6992L10.2695 13.7656C10.2422 13.875 10.2148 13.9844 10.1602 14.0938C9.94141 14.4766 9.55859 14.5859 9.33984 14.6406C8.90234 14.7227 8.46484 14.75 8 14.75C7.53516 14.75 7.07031 14.7227 6.63281 14.6406C6.41406 14.5859 6.03125 14.4766 5.8125 14.0938C5.75781 13.9844 5.73047 13.875 5.70312 13.7656L5.42969 12.6992C5.40234 12.5352 5.12891 12.3984 4.99219 12.4258L3.95312 12.7539C3.84375 12.7812 3.70703 12.7812 3.59766 12.8086C3.16016 12.8086 2.85938 12.5352 2.72266 12.3711C2.12109 11.6875 1.65625 10.8945 1.35547 10.0195C1.30078 9.80078 1.21875 9.41797 1.4375 9.03516C1.49219 8.95312 1.57422 8.84375 1.65625 8.76172L2.44922 8.02344C2.55859 7.91406 2.55859 7.61328 2.44922 7.50391L1.65625 6.73828C1.57422 6.65625 1.49219 6.57422 1.4375 6.46484C1.21875 6.10938 1.30078 5.72656 1.35547 5.50781C1.65625 4.63281 2.12109 3.83984 2.72266 3.15625C2.85938 2.99219 3.16016 2.71875 3.59766 2.71875C3.70703 2.71875 3.84375 2.74609 3.95312 2.77344L4.99219 3.07422C5.12891 3.12891 5.40234 2.96484 5.42969 2.82812L5.70312 1.76172C5.73047 1.65234 5.75781 1.54297 5.8125 1.43359C6.03125 1.05078 6.41406 0.941406 6.63281 0.886719C7.07031 0.804688 7.53516 0.75 8 0.75ZM6.96094 2.17188L6.71484 3.12891C6.49609 4.00391 5.48438 4.60547 4.60938 4.35938L3.65234 4.05859C3.21484 4.60547 2.85938 5.20703 2.61328 5.86328L3.35156 6.54688C4.00781 7.17578 4.00781 8.35156 3.35156 8.98047L2.61328 9.66406C2.85938 10.3203 3.21484 10.9219 3.65234 11.4688L4.60938 11.168C5.48438 10.9219 6.49609 11.5234 6.71484 12.3984L6.96094 13.3555C7.61719 13.4922 8.35547 13.4922 9.03906 13.3555L9.25781 12.3984C9.47656 11.5234 10.4883 10.9219 11.3633 11.168L12.3203 11.4688C12.7578 10.9219 13.1133 10.3203 13.3594 9.66406L12.6484 8.98047C11.9922 8.35156 11.9922 7.17578 12.6484 6.54688L13.3594 5.86328C13.1133 5.20703 12.7578 4.60547 12.3203 4.05859L11.3633 4.35938C10.5156 4.60547 9.47656 4.00391 9.25781 3.12891L9.03906 2.17188C8.35547 2.03516 7.61719 2.03516 6.96094 2.17188ZM6.6875 7.75C6.6875 8.24219 6.93359 8.65234 7.34375 8.89844C7.72656 9.14453 8.24609 9.14453 8.65625 8.89844C9.03906 8.65234 9.3125 8.24219 9.3125 7.75C9.3125 7.28516 9.03906 6.875 8.65625 6.62891C8.24609 6.38281 7.72656 6.38281 7.34375 6.62891C6.93359 6.875 6.6875 7.28516 6.6875 7.75ZM8 10.375C7.04297 10.375 6.19531 9.88281 5.70312 9.0625C5.23828 8.26953 5.23828 7.25781 5.70312 6.4375C6.19531 5.64453 7.04297 5.125 8 5.125C8.92969 5.125 9.77734 5.64453 10.2695 6.4375C10.7344 7.25781 10.7344 8.26953 10.2695 9.0625C9.77734 9.88281 8.92969 10.375 8 10.375Z" fill="#092F42"/>
</svg>
