<svg width="16" height="16" viewBox="0 0 16 16" fill="none" xmlns="http://www.w3.org/2000/svg">
<path d="M8 2.9375C6.19531 2.9375 4.74609 3.75781 3.625 4.79688C2.55859 5.78125 1.84766 6.92969 1.46484 7.75C1.84766 8.57031 2.55859 9.74609 3.625 10.7305C4.74609 11.7695 6.19531 12.5625 8 12.5625C9.77734 12.5625 11.2266 11.7695 12.3477 10.7305C13.4141 9.74609 14.1523 8.57031 14.5078 7.75C14.1523 6.92969 13.4141 5.78125 12.375 4.79688C11.2266 3.75781 9.77734 2.9375 8 2.9375ZM2.72266 3.83984C4.00781 2.63672 5.78516 1.625 8 1.625C10.1875 1.625 11.9648 2.63672 13.25 3.83984C14.5352 5.04297 15.3828 6.4375 15.793 7.42188C15.875 7.64062 15.875 7.88672 15.793 8.10547C15.3828 9.0625 14.5352 10.4844 13.25 11.6875C11.9648 12.8906 10.1875 13.875 8 13.875C5.78516 13.875 4.00781 12.8906 2.72266 11.6875C1.4375 10.4844 0.589844 9.0625 0.179688 8.10547C0.0976562 7.88672 0.0976562 7.64062 0.179688 7.42188C0.589844 6.4375 1.4375 5.01562 2.72266 3.83984ZM8 9.9375C9.20312 9.9375 10.1875 8.98047 10.1875 7.75C10.1875 6.54688 9.20312 5.5625 8 5.5625C7.97266 5.5625 7.94531 5.5625 7.94531 5.5625C7.97266 5.72656 8 5.86328 8 6C8 6.98438 7.20703 7.75 6.25 7.75C6.08594 7.75 5.94922 7.75 5.8125 7.69531C5.8125 7.72266 5.8125 7.75 5.8125 7.75C5.8125 8.98047 6.76953 9.9375 8 9.9375ZM8 4.25C9.23047 4.25 10.3789 4.93359 11.0078 6C11.6367 7.09375 11.6367 8.43359 11.0078 9.5C10.3789 10.5938 9.23047 11.25 8 11.25C6.74219 11.25 5.59375 10.5938 4.96484 9.5C4.33594 8.43359 4.33594 7.09375 4.96484 6C5.59375 4.93359 6.74219 4.25 8 4.25Z" fill="#092F42"/>
</svg>
