<svg width="16" height="16" viewBox="0 0 16 16" fill="none" xmlns="http://www.w3.org/2000/svg">
<path d="M12.6211 1.59766L14.8086 3.78516C15.0547 4.05859 15.0547 4.46875 14.8086 4.71484L12.6211 6.90234C12.3477 7.17578 11.9375 7.17578 11.6914 6.90234C11.418 6.65625 11.418 6.24609 11.6914 5.97266L12.7578 4.90625H10.625C10.2695 4.90625 9.94141 5.07031 9.75 5.34375L8.49219 7.03906L7.67188 5.94531L8.68359 4.57812C9.14844 3.94922 9.85938 3.59375 10.625 3.59375H12.7578L11.6914 2.52734C11.418 2.28125 11.418 1.87109 11.6914 1.625C11.9375 1.35156 12.3477 1.35156 12.5938 1.625L12.6211 1.59766ZM6.57812 9.58203L5.53906 10.9492C5.07422 11.5508 4.36328 11.9062 3.625 11.9062H1.65625C1.27344 11.9062 1 11.6328 1 11.25C1 10.8945 1.27344 10.5938 1.65625 10.5938H3.625C3.95312 10.5938 4.28125 10.457 4.5 10.1562L5.75781 8.48828L6.57812 9.58203ZM11.6914 8.59766C11.9375 8.35156 12.3477 8.35156 12.5938 8.59766L14.7812 10.7852C15.0547 11.0586 15.0547 11.4688 14.7812 11.7148L12.5938 13.9023C12.3477 14.1758 11.9375 14.1758 11.6914 13.9023C11.418 13.6562 11.418 13.2461 11.6914 12.9727L12.7578 11.9062H10.625C9.85938 11.9062 9.14844 11.5508 8.68359 10.9492L4.5 5.34375C4.28125 5.07031 3.95312 4.90625 3.625 4.90625H1.65625C1.27344 4.90625 1 4.63281 1 4.25C1 3.89453 1.27344 3.59375 1.65625 3.59375H3.625C4.36328 3.59375 5.07422 3.94922 5.53906 4.57812L9.75 10.1562C9.94141 10.457 10.2695 10.5938 10.625 10.5938H12.7578L11.6914 9.52734C11.418 9.28125 11.418 8.87109 11.6914 8.625V8.59766Z" fill="#092F42"/>
</svg>
