<svg width="16" height="16" viewBox="0 0 16 16" fill="none" xmlns="http://www.w3.org/2000/svg">
<path d="M6.5 3C6.5 2.72386 6.27614 2.5 6 2.5H2C1.72386 2.5 1.5 2.72386 1.5 3V13C1.5 13.2761 1.72386 13.5 2 13.5H6C6.27614 13.5 6.5 13.2761 6.5 13V3ZM7.5 13C7.5 13.8284 6.82843 14.5 6 14.5H2C1.17157 14.5 0.5 13.8284 0.5 13V3C0.5 2.17157 1.17157 1.5 2 1.5H6C6.82843 1.5 7.5 2.17157 7.5 3V13Z" fill="#092F42"/>
<path d="M15.5 13C15.5 13.8284 14.8284 14.5 14 14.5H10C9.17157 14.5 8.5 13.8284 8.5 13V3C8.5 2.17157 9.17157 1.5 10 1.5H14C14.8284 1.5 15.5 2.17157 15.5 3V13Z" fill="#092F42"/>
</svg>
