<svg width="16" height="16" viewBox="0 0 16 16" fill="none" xmlns="http://www.w3.org/2000/svg">
<path d="M2.42188 12.8086C2.17578 13.0273 1.79297 13.082 1.49219 12.918C1.19141 12.7812 1 12.4805 1 12.125V3.375C1 3.04687 1.19141 2.74609 1.49219 2.58203C1.79297 2.44531 2.14844 2.5 2.42188 2.71875L7.125 6.62891V8.89844L2.42188 12.8086ZM8 3.375C8 3.04687 8.19141 2.74609 8.49219 2.58203C8.79297 2.44531 9.14844 2.5 9.42188 2.71875L14.6719 7.09375C14.8633 7.25781 15 7.50391 15 7.75C15 8.02344 14.8633 8.26953 14.6719 8.43359L9.42188 12.8086C9.17578 13.0273 8.79297 13.082 8.49219 12.918C8.19141 12.7812 8 12.4805 8 12.125V3.375Z" fill="#092F42"/>
</svg>
