<svg width="16" height="16" viewBox="0 0 16 16" fill="none" xmlns="http://www.w3.org/2000/svg">
<path d="M3.1875 10.1375C2.69531 10.1375 2.3125 10.5477 2.3125 11.0125C2.3125 11.5047 2.69531 11.8875 3.1875 11.8875C3.65234 11.8875 4.0625 11.5047 4.0625 11.0125C4.0625 10.5477 3.65234 10.1375 3.1875 10.1375ZM5.26562 10.3562H14.3438C14.6992 10.3562 15 10.657 15 11.0125C15 11.3953 14.6992 11.6687 14.3438 11.6687H5.26562C4.99219 12.5711 4.14453 13.2 3.1875 13.2C1.95703 13.2 1 12.243 1 11.0125C1 9.80937 1.95703 8.825 3.1875 8.825C4.14453 8.825 4.99219 9.48125 5.26562 10.3562ZM11.9375 4.8875C11.9375 5.37968 12.3203 5.7625 12.8125 5.7625C13.2773 5.7625 13.6875 5.37968 13.6875 4.8875C13.6875 4.42265 13.2773 4.0125 12.8125 4.0125C12.3203 4.0125 11.9375 4.42265 11.9375 4.8875ZM10.707 4.23125C10.9805 3.35625 11.8281 2.7 12.8125 2.7C14.0156 2.7 15 3.68437 15 4.8875C15 6.11797 14.0156 7.075 12.8125 7.075C11.8281 7.075 10.9805 6.44609 10.707 5.54375H1.65625C1.27344 5.54375 1 5.27031 1 4.8875C1 4.53203 1.27344 4.23125 1.65625 4.23125H10.707Z" fill="#092F42"/>
</svg>
