<svg width="16" height="16" viewBox="0 0 16 16" fill="none" xmlns="http://www.w3.org/2000/svg">
<path d="M7.87104 1.89844C8.19916 1.54297 8.77338 1.54297 9.10151 1.89844L12.6015 5.39844C12.8476 5.64453 12.9296 6.02734 12.7929 6.35547C12.6562 6.68359 12.3554 6.90234 11.9999 6.90234H4.99994C4.64448 6.90234 4.31635 6.68359 4.17963 6.35547C4.04291 6.02734 4.12494 5.64453 4.37104 5.39844L7.87104 1.89844ZM7.87104 13.6289L4.37104 10.1289C4.12494 9.88281 4.04291 9.5 4.17963 9.17188C4.31635 8.84375 4.64448 8.625 4.99994 8.625H11.9999C12.3281 8.625 12.6562 8.84375 12.7929 9.17188C12.9296 9.5 12.8476 9.88281 12.6015 10.1289L9.10151 13.6289C8.77338 13.9844 8.19916 13.9844 7.87104 13.6289Z" fill="#092F42"/>
</svg>
