<svg width="16" height="16" viewBox="0 0 16 16" fill="none" xmlns="http://www.w3.org/2000/svg">
<path d="M13.4584 8C13.7575 8 14.0025 7.75704 13.9756 7.45916C13.8855 6.46333 13.5475 5.50272 12.9888 4.66658C12.3295 3.67988 11.3925 2.91085 10.2961 2.45672C9.19974 2.0026 7.99334 1.88378 6.82946 2.11529C5.66557 2.3468 4.59647 2.91824 3.75736 3.75736C2.91824 4.59647 2.3468 5.66557 2.11529 6.82946C1.88378 7.99334 2.0026 9.19974 2.45672 10.2961C2.91085 11.3925 3.67988 12.3295 4.66658 12.9888C5.50272 13.5475 6.46333 13.8855 7.45916 13.9756C7.75704 14.0025 8 13.7575 8 13.4584V13.4584C8 13.1593 7.75681 12.92 7.45952 12.8871C6.67825 12.8007 5.92626 12.5278 5.26833 12.0882C4.45976 11.548 3.82955 10.78 3.4574 9.88161C3.08526 8.98316 2.98788 7.99455 3.1776 7.04077C3.36732 6.08699 3.83561 5.21088 4.52325 4.52325C5.21088 3.83561 6.08699 3.36732 7.04077 3.1776C7.99455 2.98788 8.98316 3.08526 9.88161 3.4574C10.78 3.82955 11.548 4.45976 12.0882 5.26833C12.5278 5.92626 12.8007 6.67825 12.8871 7.45952C12.92 7.75681 13.1593 8 13.4584 8V8Z" fill="#092F42"/>
</svg>
