<svg width="16" height="16" viewBox="0 0 16 16" fill="none" xmlns="http://www.w3.org/2000/svg">
<path d="M1.75 3.3125C1.50391 3.3125 1.3125 3.53125 1.3125 3.75V12.5C1.3125 12.7461 1.50391 12.9375 1.75 12.9375H14C14.2188 12.9375 14.4375 12.7461 14.4375 12.5V3.75C14.4375 3.53125 14.2188 3.3125 14 3.3125H1.75ZM0 3.75C0 2.79297 0.765625 2 1.75 2H14C14.957 2 15.75 2.79297 15.75 3.75V12.5C15.75 13.4844 14.957 14.25 14 14.25H1.75C0.765625 14.25 0 13.4844 0 12.5V3.75ZM3.28125 7.6875H8.09375C8.44922 7.6875 8.75 7.98828 8.75 8.34375C8.75 8.72656 8.44922 9 8.09375 9H3.28125C2.89844 9 2.625 8.72656 2.625 8.34375C2.625 7.98828 2.89844 7.6875 3.28125 7.6875ZM10.2812 7.6875H12.4688C12.8242 7.6875 13.125 7.98828 13.125 8.34375C13.125 8.72656 12.8242 9 12.4688 9H10.2812C9.89844 9 9.625 8.72656 9.625 8.34375C9.625 7.98828 9.89844 7.6875 10.2812 7.6875ZM3.28125 10.3125H5.46875C5.82422 10.3125 6.125 10.6133 6.125 10.9688C6.125 11.3516 5.82422 11.625 5.46875 11.625H3.28125C2.89844 11.625 2.625 11.3516 2.625 10.9688C2.625 10.6133 2.89844 10.3125 3.28125 10.3125ZM7.65625 10.3125H12.4688C12.8242 10.3125 13.125 10.6133 13.125 10.9688C13.125 11.3516 12.8242 11.625 12.4688 11.625H7.65625C7.27344 11.625 7 11.3516 7 10.9688C7 10.6133 7.27344 10.3125 7.65625 10.3125Z" fill="#092F42"/>
</svg>
