<svg width="16" height="16" viewBox="0 0 16 16" fill="none" xmlns="http://www.w3.org/2000/svg">
<path d="M1.75 2H14C14.957 2 15.75 2.79297 15.75 3.75V12.5C15.75 13.4844 14.957 14.25 14 14.25H1.75C0.765625 14.25 0 13.4844 0 12.5V3.75C0 2.79297 0.765625 2 1.75 2ZM3.28125 7.6875C2.89844 7.6875 2.625 7.98828 2.625 8.34375C2.625 8.72656 2.89844 9 3.28125 9H8.09375C8.44922 9 8.75 8.72656 8.75 8.34375C8.75 7.98828 8.44922 7.6875 8.09375 7.6875H3.28125ZM10.2812 7.6875C9.89844 7.6875 9.625 7.98828 9.625 8.34375C9.625 8.72656 9.89844 9 10.2812 9H12.4688C12.8242 9 13.125 8.72656 13.125 8.34375C13.125 7.98828 12.8242 7.6875 12.4688 7.6875H10.2812ZM3.28125 10.3125C2.89844 10.3125 2.625 10.6133 2.625 10.9688C2.625 11.3516 2.89844 11.625 3.28125 11.625H5.46875C5.82422 11.625 6.125 11.3516 6.125 10.9688C6.125 10.6133 5.82422 10.3125 5.46875 10.3125H3.28125ZM7.65625 10.3125C7.27344 10.3125 7 10.6133 7 10.9688C7 11.3516 7.27344 11.625 7.65625 11.625H12.4688C12.8242 11.625 13.125 11.3516 13.125 10.9688C13.125 10.6133 12.8242 10.3125 12.4688 10.3125H7.65625Z" fill="#092F42"/>
</svg>
