<svg width="18" height="16" viewBox="0 0 18 16" fill="none" xmlns="http://www.w3.org/2000/svg">
<path d="M1.05733 1.15498L2.09639 1.94795C2.26045 1.89326 2.45186 1.86592 2.64326 1.86592H14.8933C15.8503 1.86592 16.6433 2.65889 16.6433 3.61592V12.3659C16.6433 12.6667 16.5612 12.9401 16.4245 13.1862L17.2448 13.8425C17.5456 14.0612 17.6003 14.4714 17.3542 14.7448C17.1355 15.0456 16.7253 15.1003 16.4519 14.8542L0.264357 2.1667C-0.0364242 1.94795 -0.0911117 1.53779 0.154982 1.26436C0.373732 0.963576 0.783888 0.908888 1.05733 1.15498ZM3.68233 3.17842L10.737 8.7292C10.6003 8.59248 10.5183 8.42842 10.5183 8.20967C10.5183 7.8542 10.7917 7.55342 11.1745 7.55342H13.362C13.7175 7.55342 14.0183 7.8542 14.0183 8.20967C14.0183 8.59248 13.7175 8.86592 13.362 8.86592H11.1745C11.0105 8.86592 10.8737 8.83858 10.7644 8.75654L12.6237 10.1784H13.362C13.7175 10.1784 14.0183 10.4792 14.0183 10.8347C14.0183 10.9714 13.9636 11.1081 13.9089 11.1901L15.3308 12.3112V3.61592C15.3308 3.39717 15.112 3.17842 14.8933 3.17842H3.68233ZM13.3347 14.1159H2.64326C1.65889 14.1159 0.893263 13.3503 0.893263 12.3659V4.32686L2.20576 5.33858V12.3659C2.20576 12.612 2.39717 12.8034 2.64326 12.8034H11.6667L13.3347 14.1159ZM9.99873 11.4909H8.54951C8.1667 11.4909 7.89326 11.2175 7.89326 10.8347C7.89326 10.5339 8.08467 10.2878 8.35811 10.2058L9.99873 11.4909ZM6.66279 8.86592H4.17451C3.7917 8.86592 3.51826 8.59248 3.51826 8.20967C3.51826 7.8542 3.7917 7.55342 4.17451 7.55342H4.99483L6.66279 8.86592ZM4.17451 10.1784H6.36201C6.71748 10.1784 7.01826 10.4792 7.01826 10.8347C7.01826 11.2175 6.71748 11.4909 6.36201 11.4909H4.17451C3.7917 11.4909 3.51826 11.2175 3.51826 10.8347C3.51826 10.4792 3.7917 10.1784 4.17451 10.1784Z" fill="#092F42"/>
</svg>
