<svg width="16" height="16" viewBox="0 0 16 16" fill="none" xmlns="http://www.w3.org/2000/svg">
<path d="M6.25 2.9375V5.34375H13.6875V3.375C13.6875 3.15625 13.4688 2.9375 13.25 2.9375H6.25ZM4.9375 2.9375H2.75C2.50391 2.9375 2.3125 3.15625 2.3125 3.375V5.34375H4.9375V2.9375ZM2.3125 6.65625V8.84375H4.9375V6.65625H2.3125ZM2.3125 10.1562V12.125C2.3125 12.3711 2.50391 12.5625 2.75 12.5625H4.9375V10.1562H2.3125ZM6.25 12.5625H13.25C13.4688 12.5625 13.6875 12.3711 13.6875 12.125V10.1562H6.25V12.5625ZM13.6875 8.84375V6.65625H6.25V8.84375H13.6875ZM1 3.375C1 2.41797 1.76562 1.625 2.75 1.625H13.25C14.207 1.625 15 2.41797 15 3.375V12.125C15 13.1094 14.207 13.875 13.25 13.875H2.75C1.76562 13.875 1 13.1094 1 12.125V3.375Z" fill="#092F42"/>
</svg>
