<svg width="16" height="16" viewBox="0 0 16 16" fill="none" xmlns="http://www.w3.org/2000/svg">
<path d="M5.3125 1.40625C5.3125 1.05078 5.58594 0.75 5.96875 0.75H9.03125C9.38672 0.75 9.6875 1.05078 9.6875 1.40625C9.6875 1.78906 9.38672 2.0625 9.03125 2.0625H8.15625V3.42969C9.33203 3.56641 10.3984 4.05859 11.2461 4.82422L12.0664 4.00391C12.3125 3.75781 12.7227 3.75781 12.9688 4.00391C13.2422 4.27734 13.2422 4.6875 12.9688 4.93359L12.1211 5.78125C12.7773 6.71094 13.1875 7.85938 13.1875 9.0625C13.1875 12.207 10.6172 14.75 7.5 14.75C4.35547 14.75 1.8125 12.207 1.8125 9.0625C1.8125 6.16406 4 3.75781 6.84375 3.42969V2.0625H5.96875C5.58594 2.0625 5.3125 1.78906 5.3125 1.40625ZM7.5 13.4375C9.05859 13.4375 10.4805 12.6172 11.2734 11.25C12.0664 9.91016 12.0664 8.24219 11.2734 6.875C10.4805 5.53516 9.05859 4.6875 7.5 4.6875C5.91406 4.6875 4.49219 5.53516 3.69922 6.875C2.90625 8.24219 2.90625 9.91016 3.69922 11.25C4.49219 12.6172 5.91406 13.4375 7.5 13.4375ZM8.15625 6.65625V9.5C8.15625 9.88281 7.85547 10.1562 7.5 10.1562C7.11719 10.1562 6.84375 9.88281 6.84375 9.5V6.65625C6.84375 6.30078 7.11719 6 7.5 6C7.85547 6 8.15625 6.30078 8.15625 6.65625Z" fill="#092F42"/>
</svg>
