<svg width="16" height="16" viewBox="0 0 16 16" fill="none" xmlns="http://www.w3.org/2000/svg">
<path d="M13.6875 7.75C13.6875 5.72656 12.5938 3.86719 10.8438 2.82812C9.06641 1.81641 6.90625 1.81641 5.15625 2.82812C3.37891 3.86719 2.3125 5.72656 2.3125 7.75C2.3125 9.80078 3.37891 11.6602 5.15625 12.6992C6.90625 13.7109 9.06641 13.7109 10.8438 12.6992C12.5938 11.6602 13.6875 9.80078 13.6875 7.75ZM1 7.75C1 5.26172 2.3125 2.96484 4.5 1.70703C6.66016 0.449219 9.3125 0.449219 11.5 1.70703C13.6602 2.96484 15 5.26172 15 7.75C15 10.2656 13.6602 12.5625 11.5 13.8203C9.3125 15.0781 6.66016 15.0781 4.5 13.8203C2.3125 12.5625 1 10.2656 1 7.75ZM7.34375 4.03125C7.34375 3.67578 7.61719 3.375 8 3.375C8.35547 3.375 8.65625 3.67578 8.65625 4.03125V7.42188L10.9805 8.95312C11.2812 9.17188 11.3633 9.58203 11.1719 9.88281C10.9531 10.1836 10.543 10.2656 10.2422 10.0469L7.61719 8.29688C7.45312 8.1875 7.34375 7.96875 7.34375 7.75V4.03125Z" fill="#092F42"/>
</svg>
