<svg width="16" height="16" viewBox="0 0 16 16" fill="none" xmlns="http://www.w3.org/2000/svg">
<path d="M3.83935 2.11702L6.27328 3.98927C6.4137 4.10629 6.50731 4.27011 6.50731 4.43393V5.69771L9.05826 8.24866C9.73696 7.92101 10.5795 8.03803 11.1411 8.59971L13.7623 11.2209C14.0666 11.5017 14.0666 11.9932 13.7623 12.274L12.2645 13.7718C11.9837 14.0761 11.4922 14.0761 11.2114 13.7718L8.5902 11.1507C8.02852 10.589 7.91151 9.72306 8.26255 9.04437L5.7116 6.49342H4.42443C4.2606 6.49342 4.09678 6.42321 3.97977 6.28279L2.10751 3.84885C1.94369 3.61482 1.96709 3.31058 2.17772 3.09995L3.11385 2.16382C3.30107 1.9766 3.62872 1.95319 3.83935 2.11702ZM2.55217 10.823L5.75841 7.61677L6.55412 8.41248L3.34788 11.6187C3.20746 11.7591 3.13725 11.9464 3.13725 12.1336C3.13725 12.5314 3.46489 12.8591 3.86275 12.8591C4.04998 12.8591 4.2372 12.7889 4.37762 12.6485L7.30302 9.72306C7.27962 10.1677 7.37323 10.6124 7.58386 11.0336L5.17333 13.4442C4.82228 13.7952 4.35422 13.9824 3.86275 13.9824C2.83301 13.9824 2.0139 13.1633 2.0139 12.1336C2.0139 11.6421 2.20112 11.1741 2.55217 10.823ZM12.8496 5.83813L12.2645 6.44661C11.9837 6.72745 11.6092 6.86787 11.2114 6.86787H10.6263C9.78376 6.86787 9.12847 6.21258 9.12847 5.37006V4.78498C9.12847 4.38713 9.26889 4.01268 9.54973 3.73184L10.1582 3.14676C8.75402 3.19356 7.63067 4.34032 7.63067 5.74451V5.76792L7.25622 5.39347V4.43393C7.25622 4.1999 7.18601 3.96587 7.06899 3.77864C7.72428 2.7255 8.89444 2 10.2518 2C10.8135 2 11.3752 2.14042 11.8666 2.37445C12.0773 2.49147 12.1007 2.77231 11.9369 2.93613L10.3454 4.52755C10.2752 4.59776 10.2518 4.69137 10.2518 4.78498V5.39347C10.2518 5.58069 10.4156 5.76792 10.6263 5.76792H11.2114C11.305 5.76792 11.3986 5.72111 11.4688 5.6509L13.0602 4.05948C13.224 3.89566 13.5049 3.91906 13.6219 4.12969C13.8559 4.62116 13.9963 5.18284 13.9963 5.76792C13.9963 7.00829 13.3645 8.13164 12.4049 8.81034L11.6794 8.06143C11.656 8.03803 11.6326 8.01463 11.6092 7.99122C12.3347 7.54656 12.8262 6.75085 12.8496 5.83813Z" fill="#092F42"/>
</svg>
