<svg width="16" height="16" viewBox="0 0 16 16" fill="none" xmlns="http://www.w3.org/2000/svg">
<path d="M1.6 3H14.4C15.275 3 16 3.725 16 4.6V11C16 11.9 15.275 12.6 14.4 12.6H1.6C0.7 12.6 0 11.9 0 11V4.6C0 3.725 0.7 3 1.6 3ZM14.4 4.2H8V11.4H14.4C14.6 11.4 14.8 11.225 14.8 11V4.6C14.8 4.4 14.6 4.2 14.4 4.2ZM4.45 5.8C4.375 5.625 4.175 5.5 4 5.5C3.8 5.5 3.6 5.625 3.525 5.8L1.925 9.4C1.825 9.65 1.925 9.95 2.175 10.075C2.45 10.175 2.725 10.075 2.85 9.825L3.075 9.3H4.9L5.125 9.825C5.25 10.075 5.55 10.175 5.8 10.075C6.05 9.95 6.15 9.65 6.05 9.4L4.45 5.8ZM4.475 8.3H3.525L4 7.25L4.475 8.3ZM11.4 5.5C11.675 5.5 11.9 5.725 11.9 6V6.1H13.4C13.675 6.1 13.9 6.325 13.9 6.6C13.9 6.875 13.675 7.1 13.4 7.1H13.35L13.3 7.225C13.075 7.825 12.725 8.4 12.3 8.85C12.325 8.875 12.35 8.875 12.375 8.9L12.85 9.175C13.075 9.325 13.15 9.625 13.025 9.875C12.875 10.1 12.575 10.175 12.325 10.05L11.85 9.75C11.75 9.7 11.65 9.625 11.525 9.55C11.275 9.725 10.975 9.9 10.675 10.025L10.6 10.075C10.35 10.175 10.05 10.075 9.925 9.825C9.825 9.55 9.925 9.275 10.175 9.15L10.275 9.125C10.425 9.05 10.6 8.95 10.75 8.875L10.425 8.575C10.25 8.375 10.25 8.05 10.425 7.85C10.625 7.675 10.95 7.675 11.15 7.85L11.5 8.225H11.525C11.825 7.9 12.075 7.525 12.275 7.1H9.6C9.325 7.1 9.1 6.875 9.1 6.6C9.1 6.325 9.325 6.1 9.6 6.1H10.9V6C10.9 5.725 11.125 5.5 11.4 5.5Z" fill="#092F42"/>
</svg>
