<svg width="16" height="16" viewBox="0 0 16 16" fill="none" xmlns="http://www.w3.org/2000/svg">
<path d="M11.75 3.86914C11.75 3.21289 12.1016 2.60352 12.6875 2.25195C13.25 1.92383 13.9766 1.92383 14.5625 2.25195C15.125 2.60352 15.5 3.21289 15.5 3.86914C15.5 4.54883 15.125 5.1582 14.5625 5.50977C13.9766 5.83789 13.25 5.83789 12.6875 5.50977C12.1016 5.1582 11.75 4.54883 11.75 3.86914ZM10.1562 8.60352L11.2812 6.75195C11.3984 6.61133 11.5625 6.49414 11.75 6.49414C11.9141 6.49414 12.1016 6.61133 12.1953 6.75195L15.2891 11.8145C15.4062 12.0488 15.5 12.3066 15.5 12.5645C15.5 13.3613 14.8438 13.9941 14.0469 13.9941H1.78906C1.08594 13.9941 0.5 13.4082 0.5 12.7051C0.5 12.4473 0.570312 12.2129 0.6875 12.002L5.77344 3.89258C5.91406 3.6582 6.19531 3.49414 6.5 3.49414C6.78125 3.49414 7.0625 3.6582 7.20312 3.89258L10.1562 8.60352ZM10.8359 9.68164L12.2891 12.002C12.4297 12.2129 12.5 12.4473 12.5 12.6816C12.5 12.752 12.4766 12.8223 12.4766 12.8691H14.0469C14.2344 12.8691 14.3516 12.7285 14.3516 12.5645C14.3516 12.5176 14.3516 12.4473 14.3281 12.4004L11.75 8.18164L10.8359 9.68164ZM11.1875 12.8691C11.2812 12.8691 11.375 12.7988 11.375 12.7051C11.375 12.6582 11.3516 12.6348 11.3281 12.5879L6.5 4.87695L1.64844 12.5879C1.625 12.6348 1.625 12.6582 1.625 12.7051C1.625 12.7988 1.69531 12.8691 1.78906 12.8691H11.1875Z" fill="#092F42"/>
</svg>
