<svg width="16" height="16" viewBox="0 0 16 16" fill="none" xmlns="http://www.w3.org/2000/svg">
<path d="M13.9997 8.125C13.9997 10.8203 11.3044 13 7.99967 13C7.10905 13 6.28874 12.8594 5.53874 12.6016C5.28092 12.7891 4.81217 13.0703 4.27311 13.3047C3.71061 13.5625 3.03092 13.75 2.37467 13.75C2.21061 13.75 2.06999 13.6797 2.02311 13.5391C1.9528 13.3984 1.99967 13.2344 2.09342 13.1172C2.11686 13.1172 2.11686 13.0938 2.1403 13.0703C2.16374 13.0469 2.21061 13 2.25749 12.9531C2.35124 12.8359 2.46842 12.6484 2.60905 12.4375C2.84342 12.0625 3.05436 11.5469 3.10124 10.9609C2.39811 10.1641 1.99967 9.20312 1.99967 8.125C1.99967 5.45312 4.67155 3.25 7.99967 3.25C11.3044 3.25 13.9997 5.45312 13.9997 8.125Z" fill="#092F42"/>
</svg>
