<svg width="16" height="16" viewBox="0 0 16 16" fill="none" xmlns="http://www.w3.org/2000/svg">
<path d="M3.57031 5.89062C3.40625 6.21875 3.02344 6.35547 2.69531 6.21875C2.36719 6.08203 2.20312 5.69922 2.33984 5.37109C3.26953 3.18359 5.45703 1.625 8 1.625C9.42188 1.625 10.7891 2.19922 11.8008 3.21094L11.9375 3.34766L12.8945 2.36328C13.0859 2.17188 13.332 2.0625 13.5781 2.0625C14.125 2.0625 14.5625 2.5 14.5625 3.04688V6.21875C14.5625 6.60156 14.2617 6.875 13.9062 6.875H10.707C10.1602 6.875 9.75 6.46484 9.75 5.91797C9.75 5.67188 9.83203 5.42578 10.0234 5.23438L11.0078 4.25L10.8711 4.14062C10.1055 3.375 9.06641 2.9375 8 2.9375C6.00391 2.9375 4.28125 4.16797 3.57031 5.89062ZM13.6328 10.1836C12.6758 12.3438 10.5156 13.875 8 13.875C6.55078 13.875 5.18359 13.3281 4.17188 12.2891L4.0625 12.1797L3.07812 13.1641C2.88672 13.3555 2.64062 13.4375 2.39453 13.4375C1.84766 13.4375 1.4375 13.0273 1.4375 12.4805V9.28125C1.4375 8.92578 1.71094 8.625 2.09375 8.625H5.26562C5.8125 8.625 6.25 9.0625 6.25 9.60938C6.25 9.85547 6.14062 10.1016 5.94922 10.293L4.99219 11.25L5.10156 11.3867C5.86719 12.1523 6.90625 12.5625 8 12.5625C9.96875 12.5625 11.6914 11.3867 12.4023 9.66406C12.5664 9.30859 12.9492 9.17188 13.2773 9.30859C13.6055 9.44531 13.7695 9.82812 13.6328 10.1836ZM13.25 5.5625V3.86719L11.5273 5.5625H13.25ZM2.75 9.9375V11.6602L4.44531 9.9375H2.75Z" fill="#092F42"/>
</svg>
