<svg width="16" height="16" viewBox="0 0 16 16" fill="none" xmlns="http://www.w3.org/2000/svg">
<path d="M8.125 8C6.86719 8 5.71875 7.34375 5.08984 6.25C4.46094 5.18359 4.46094 3.84375 5.08984 2.75C5.71875 1.68359 6.86719 1 8.125 1C9.35547 1 10.5039 1.68359 11.1328 2.75C11.7617 3.84375 11.7617 5.18359 11.1328 6.25C10.5039 7.34375 9.35547 8 8.125 8ZM6.86719 9.3125H9.35547C12.0625 9.3125 14.25 11.5 14.25 14.207C14.25 14.6445 13.8672 15 13.4297 15H2.79297C2.35547 15 2 14.6445 2 14.207C2 11.5 4.16016 9.3125 6.86719 9.3125Z" fill="#092F42"/>
</svg>
