<svg width="16" height="16" viewBox="0 0 16 16" fill="none" xmlns="http://www.w3.org/2000/svg">
<path d="M0 13V3C0 2.17157 0.671573 1.5 1.5 1.5H6C6.27614 1.5 6.5 1.72386 6.5 2C6.5 2.27614 6.27614 2.5 6 2.5H1.5C1.22386 2.5 1 2.72386 1 3V13C1 13.2761 1.22386 13.5 1.5 13.5H14.5C14.7761 13.5 15 13.2761 15 13V10C15 9.72386 15.2239 9.5 15.5 9.5C15.7761 9.5 16 9.72386 16 10V13C16 13.8284 15.3284 14.5 14.5 14.5H1.5C0.671573 14.5 0 13.8284 0 13Z" fill="#092F42"/>
<path d="M14.5 8.5C15.3284 8.5 16 7.82843 16 7V3C16 2.17157 15.3284 1.5 14.5 1.5H9.5C8.67157 1.5 8 2.17157 8 3V7C8 7.82843 8.67157 8.5 9.5 8.5H14.5Z" fill="#092F42"/>
</svg>
