<svg width="16" height="16" viewBox="0 0 16 16" fill="none" xmlns="http://www.w3.org/2000/svg">
<path d="M2.16667 4.25C1.93229 4.25 1.75 4.45833 1.75 4.66667V11.3333C1.75 11.5677 1.93229 11.75 2.16667 11.75H8.83333C9.04167 11.75 9.25 11.5677 9.25 11.3333V4.66667C9.25 4.45833 9.04167 4.25 8.83333 4.25H2.16667ZM0.5 4.66667C0.5 3.75521 1.22917 3 2.16667 3H8.83333C9.74479 3 10.5 3.75521 10.5 4.66667V11.3333C10.5 12.2708 9.74479 13 8.83333 13H2.16667C1.22917 13 0.5 12.2708 0.5 11.3333V4.66667ZM14.25 10.8125V5.21354L11.3333 6.51563V5.16146L14.0417 3.9375C14.1719 3.88542 14.3021 3.83333 14.4583 3.83333C15.0313 3.83333 15.5 4.30208 15.5 4.875V11.151C15.5 11.724 15.0313 12.1667 14.4583 12.1667C14.3021 12.1667 14.1719 12.1406 14.0417 12.0885L11.3333 10.8646V9.48438L14.25 10.8125Z" fill="#092F42"/>
</svg>
