<svg width="16" height="16" viewBox="0 0 16 16" fill="none" xmlns="http://www.w3.org/2000/svg">
<path d="M4.34766 6.27344C4.23828 6.38281 4.07422 6.4375 3.9375 6.4375H1.53125C1.39453 6.4375 1.3125 6.54688 1.3125 6.65625V8.84375C1.3125 8.98047 1.39453 9.0625 1.53125 9.0625H3.9375C4.07422 9.0625 4.23828 9.14453 4.34766 9.25391L7.4375 11.9609V3.56641L4.34766 6.27344ZM7.92969 1.625C8.36719 1.625 8.75 2.00781 8.75 2.44531V13.082C8.75 13.5195 8.36719 13.875 7.92969 13.875C7.71094 13.875 7.51953 13.8203 7.38281 13.6836L3.66406 10.375H1.53125C0.683594 10.375 0 9.69141 0 8.84375V6.65625C0 5.83594 0.683594 5.125 1.53125 5.125H3.66406L7.38281 1.84375C7.51953 1.70703 7.71094 1.625 7.92969 1.625ZM12.9336 3.67578V3.70312C14.1094 4.66016 14.875 6.10938 14.875 7.77734C14.875 9.41797 14.1094 10.8672 12.9336 11.8516C12.6328 12.0703 12.2227 12.0156 12.0039 11.7422C11.7852 11.4688 11.8125 11.0586 12.0859 10.8125C12.9883 10.1016 13.5625 9.00781 13.5625 7.75C13.5625 6.51953 12.9883 5.42578 12.0859 4.71484C11.8125 4.46875 11.7578 4.05859 12.0039 3.78516C12.2227 3.51172 12.6328 3.45703 12.9336 3.67578ZM11.2656 5.72656C11.8672 6.21875 12.25 6.92969 12.25 7.75C12.25 8.59766 11.8672 9.30859 11.2656 9.80078C10.9922 10.0195 10.582 9.99219 10.3359 9.71875C10.1172 9.41797 10.1719 9.00781 10.4453 8.78906C10.7461 8.54297 10.9375 8.16016 10.9375 7.75C10.9375 7.33984 10.7461 6.98438 10.4453 6.73828C10.1719 6.51953 10.1172 6.10938 10.3359 5.80859C10.582 5.53516 10.9922 5.50781 11.2656 5.72656Z" fill="#092F42"/>
</svg>
