<svg width="16" height="16" viewBox="0 0 16 16" fill="none" xmlns="http://www.w3.org/2000/svg">
<path d="M8.23047 2.07324C8.53125 2.20996 8.75 2.53809 8.75 2.86621V13.3662C8.75 13.7217 8.53125 14.0225 8.23047 14.1865C7.90234 14.3232 7.54688 14.2686 7.27344 14.0225L3.58203 10.7412H1.75C0.765625 10.7412 0 9.97559 0 8.99121V7.24121C0 6.28418 0.765625 5.49121 1.75 5.49121H3.58203L7.27344 2.2373C7.54688 1.99121 7.90234 1.93652 8.23047 2.07324ZM12.9336 4.04199C14.1094 5.02637 14.875 6.47559 14.875 8.11621C14.875 9.78418 14.1094 11.2334 12.9336 12.1904C12.6328 12.4365 12.2227 12.3818 12.0039 12.1084C11.7578 11.835 11.8125 11.4248 12.0859 11.1787C12.9883 10.4678 13.5625 9.37402 13.5625 8.11621C13.5625 6.88574 12.9883 5.79199 12.0859 5.08105C11.8125 4.83496 11.7852 4.4248 12.0039 4.15137C12.2227 3.87793 12.6328 3.82324 12.9336 4.04199ZM11.2656 6.09277C11.8672 6.58496 12.25 7.2959 12.25 8.11621C12.25 8.96387 11.8672 9.6748 11.2656 10.167C10.9922 10.3857 10.582 10.3584 10.3359 10.0576C10.1172 9.78418 10.1719 9.37402 10.4453 9.15527C10.7461 8.90918 10.9375 8.52637 10.9375 8.11621C10.9375 7.70605 10.7461 7.35059 10.4453 7.10449C10.1719 6.88574 10.1172 6.47559 10.3359 6.1748C10.582 5.90137 10.9922 5.87402 11.2656 6.09277Z" fill="#092F42"/>
</svg>
