<svg width="18" height="16" viewBox="0 0 18 16" fill="none" xmlns="http://www.w3.org/2000/svg">
<path d="M1.05733 1.15498L5.45967 4.57295L8.27608 2.08467C8.41279 1.94795 8.6042 1.86592 8.82295 1.86592C9.26045 1.86592 9.64326 2.24873 9.64326 2.68623V7.8542L11.2292 9.11201C11.2565 9.08467 11.3112 9.05733 11.3386 9.02998C11.6394 8.78389 11.8308 8.40108 11.8308 7.99092C11.8308 7.58076 11.6394 7.22529 11.3386 6.9792C11.0651 6.76045 11.0105 6.35029 11.2292 6.04951C11.4753 5.77608 11.8855 5.74873 12.1589 5.96748C12.7605 6.45967 13.1433 7.17061 13.1433 7.99092C13.1433 8.75654 12.8151 9.46748 12.2956 9.93233L13.3347 10.7526C14.0183 10.0417 14.4558 9.08467 14.4558 7.99092C14.4558 6.76045 13.8815 5.6667 12.9792 4.95576C12.7058 4.70967 12.6511 4.29951 12.8972 4.02608C13.1159 3.75264 13.5261 3.69795 13.8269 3.9167C15.0026 4.90108 15.7683 6.35029 15.7683 7.99092C15.7683 9.38545 15.2214 10.6159 14.3737 11.573L17.2448 13.8425C17.5456 14.0612 17.6003 14.4714 17.3542 14.7448C17.1355 15.0456 16.7253 15.1003 16.4519 14.8542L0.264357 2.1667C-0.0364242 1.94795 -0.0911117 1.53779 0.154982 1.26436C0.373732 0.963576 0.783888 0.908888 1.05733 1.15498ZM6.49873 5.42061L8.33076 6.81514V3.80733L6.49873 5.42061ZM0.893263 6.89717C0.893263 6.13154 1.46748 5.47529 2.23311 5.39326L3.90108 6.67842H2.42451C2.28779 6.67842 2.20576 6.78779 2.20576 6.89717V9.08467C2.20576 9.22139 2.28779 9.30342 2.42451 9.30342H4.83076C4.96748 9.30342 5.13154 9.38545 5.24092 9.49483L8.33076 12.2019V10.1784L9.64326 11.2175V13.323C9.64326 13.7605 9.26045 14.1159 8.82295 14.1159C8.6042 14.1159 8.41279 14.0612 8.27608 13.9245L4.55733 10.6159H2.42451C1.57686 10.6159 0.893263 9.93233 0.893263 9.08467V6.89717Z" fill="#092F42"/>
</svg>
