<svg width="16" height="16" viewBox="0 0 16 16" fill="none" xmlns="http://www.w3.org/2000/svg">
<path d="M7.78125 3.07422L2.36719 11.9609C2.3125 12.043 2.3125 12.0977 2.3125 12.1797C2.3125 12.3984 2.47656 12.5625 2.69531 12.5625H13.2773C13.4961 12.5625 13.6875 12.3984 13.6875 12.1797C13.6875 12.0977 13.6602 12.043 13.6055 11.9609L8.19141 3.07422C8.16406 2.99219 8.08203 2.9375 8 2.9375C7.89062 2.9375 7.83594 2.99219 7.78125 3.07422ZM6.66016 2.39062C6.93359 1.92578 7.45312 1.625 8 1.625C8.51953 1.625 9.03906 1.92578 9.3125 2.39062L14.7266 11.2773C14.8906 11.5508 15 11.8516 15 12.1797C15 13.1094 14.2344 13.875 13.2773 13.875H2.69531C1.76562 13.875 1 13.1094 1 12.1797C1 11.8516 1.08203 11.5508 1.24609 11.2773L6.66016 2.39062ZM8.875 10.8125C8.875 11.3047 8.46484 11.6875 8 11.6875C7.50781 11.6875 7.125 11.3047 7.125 10.8125C7.125 10.3477 7.50781 9.9375 8 9.9375C8.46484 9.9375 8.875 10.3477 8.875 10.8125ZM8.65625 5.78125V8.40625C8.65625 8.78906 8.35547 9.0625 8 9.0625C7.61719 9.0625 7.34375 8.78906 7.34375 8.40625V5.78125C7.34375 5.42578 7.61719 5.125 8 5.125C8.35547 5.125 8.65625 5.42578 8.65625 5.78125Z" fill="#092F42"/>
</svg>
